<svg xmlns="http://www.w3.org/2000/svg" width="201.835" height="59" viewBox="0 0 201.835 59">
  <g id="Grupo_9" data-name="Grupo 9" transform="translate(-1552 -349)">
    <g id="Grupo_8" data-name="Grupo 8" transform="translate(1560 298.761)">
      <path id="Trazado_1" data-name="Trazado 1" d="M71.035,301.678a7.212,7.212,0,0,0,1.725.127c4.526.04,7.489-3.119,7.489-9.809,0-6.027-2.669-8.9-6.968-8.9a8.2,8.2,0,0,0-2.246.251Zm-4.949-22.816a31.463,31.463,0,0,1,6.674-.625c4.2,0,6.935.871,9.019,2.91,2.278,2.16,3.71,5.654,3.71,10.643,0,5.36-1.53,9.057-3.614,11.343-2.309,2.455-5.86,3.618-10.156,3.618a33.333,33.333,0,0,1-5.633-.418Z" transform="translate(-6.084 -199.057)" fill="#f8b31c"/>
      <path id="Trazado_2" data-name="Trazado 2" d="M168.737,317.593c0,2.66.065,4.82.13,6.524h-4.3l-.229-2.866h-.1a5.565,5.565,0,0,1-4.98,3.326c-3.257,0-5.6-2.579-5.6-8.856V303.793h4.948v10.933c0,2.951.748,4.739,2.506,4.739a2.78,2.78,0,0,0,2.476-2.2,4.225,4.225,0,0,0,.195-1.372v-12.1h4.949Z" transform="translate(-72.468 -216.718)" fill="#f8b31c"/>
      <path id="Trazado_3" data-name="Trazado 3" d="M231.787,319.024c1.955,0,3.158-2.452,3.158-6.111,0-2.992-.911-6.068-3.158-6.068-2.343,0-3.256,3.076-3.256,6.111,0,3.45,1.141,6.068,3.223,6.068Zm-.1,4.532c-4.654,0-8.235-3.91-8.235-10.478s3.386-10.764,8.529-10.764c4.851,0,8.107,4.283,8.107,10.432,0,7.4-4.136,10.81-8.367,10.81Z" transform="translate(-125.368 -215.696)" fill="#f8b31c"/>
      <path id="Trazado_4" data-name="Trazado 4" d="M312.069,322.6a9.182,9.182,0,0,1-4.429.957c-5.143,0-8.431-4.031-8.431-10.434,0-5.944,3.191-10.807,9.115-10.807a9.257,9.257,0,0,1,3.776.79l-.782,4.7a5.514,5.514,0,0,0-2.767-.624c-2.605,0-4.3,2.369-4.266,5.7,0,3.74,1.954,5.736,4.363,5.736a5.691,5.691,0,0,0,2.833-.665Z" transform="translate(-182.791 -215.696)" fill="#f8b31c"/>
      <path id="Trazado_5" data-name="Trazado 5" d="M376.949,286.05v14.943c0,4.469,1.326,6.741,3.68,6.741,2.413,0,3.741-2.155,3.741-6.741V286.05h4.585v14.558c0,8.011-3.168,11.827-8.476,11.827-5.129,0-8.146-3.622-8.146-11.9V286.05Z" transform="translate(-238.219 -204.457)" fill="#dde5eb"/>
      <path id="Trazado_6" data-name="Trazado 6" d="M466.421,310.331a10.567,10.567,0,0,1-5.22,1.156c-7.028,0-10.647-5.625-10.647-13.02,0-8.858,4.947-13.79,11.1-13.79a9.756,9.756,0,0,1,5.009,1.159l-.937,4.658a8.119,8.119,0,0,0-3.861-.963c-3.651,0-6.487,2.811-6.487,8.588,0,5.2,2.414,8.473,6.518,8.473a9.329,9.329,0,0,0,3.829-.845Z" transform="translate(-297.511 -203.509)" fill="#dde5eb"/>
      <path id="Trazado_7" data-name="Trazado 7" d="M537.67,360.3a9.792,9.792,0,0,0,16.732,0l-.252,0c-.074.1-.147.2-.223.294a9.546,9.546,0,0,1-15.783,0c-.076-.1-.15-.193-.223-.291Zm1,0a.358.358,0,0,0,.022.031c.023.027.037.039.045.023l-.011-.047a.035.035,0,0,1-.006-.007Zm2.344,0a.191.191,0,0,1-.015.133c-.028.077-.055.14-.208.49l-.176.406c-.092.214-.17.393-.222.486-.036.059-.069.11-.11.088a.344.344,0,0,1-.068-.037c-.019-.013-.03-.012-.035,0s0,.031.026.048c.072.051.189.123.231.152.091.065.239.209.374.3a.759.759,0,0,0,.72.153.874.874,0,0,0,.476-.5,1.176,1.176,0,0,0,.079-.71,1.271,1.271,0,0,0-.612-.774c-.107-.077-.223-.151-.279-.192-.014-.012-.033-.024-.055-.043Zm1.441,0a6.819,6.819,0,0,0,7.155,0h-.428a6.721,6.721,0,0,1-2.661.772.452.452,0,0,1-.4-.48V360.3h-.186v.292a.451.451,0,0,1-.4.48,6.712,6.712,0,0,1-2.661-.772Zm8.372,0c-.115.092-.334.243-.375.273s-.169.107-.264.175c-.026.022-.036.036-.03.049h.038a.784.784,0,0,1,.074-.043c.067-.024.1,0,.135.078s.064.134.217.485l.177.4c.091.214.17.4.2.5.021.068.034.128,0,.16a.232.232,0,0,1-.06.054c-.021.018-.026.03-.021.04s.023.014.046,0c.071-.051.182-.14.224-.168.108-.076.233-.148.506-.343.071-.042.086-.06.071-.128a2.725,2.725,0,0,0-.086-.272l-.033-.033c-.013.008-.013.022,0,.051a.269.269,0,0,1-.009.227.49.49,0,0,1-.158.146c-.182.135-.226.116-.3-.034-.033-.071-.123-.284-.158-.364l-.078-.181v-.028c.044-.034.223-.156.258-.176.073-.039.112-.022.142.017s.031.057.044.081l.024.008,0-.057c-.006-.016-.039-.11-.057-.158-.045-.121-.052-.168-.061-.18l-.02-.01c-.009.006-.011.022-.016.051a.169.169,0,0,1-.071.1c-.039.031-.248.181-.287.209l-.025-.017-.252-.585,0-.031c.036-.025.226-.156.259-.173.1-.047.127-.034.156,0a.157.157,0,0,1,.046.076l.033.021.008-.04c-.008-.03-.048-.135-.058-.159a.214.214,0,0,1-.01-.025Zm-9.091,1.614c-.1.235-.23.424-.4.468a.551.551,0,0,1-.488-.127.416.416,0,0,1-.2-.263.714.714,0,0,1,.057-.187c.017-.043.093-.226.2-.468l.124-.292c.08-.18.167-.381.2-.459.009-.024.022-.035.043-.029a.6.6,0,0,1,.123.065,1,1,0,0,1,.412.6,1.086,1.086,0,0,1-.078.7m1.73-.32a.849.849,0,0,1-.087-.02c-.041-.013-.427-.182-.492-.215l-.278-.13c-.027-.011-.044-.013-.049.006s.008.028.029.034.058.03.074.041c.059.046.062.092.045.181s-.037.147-.14.529l-.117.439c-.062.229-.116.425-.154.526-.028.068-.052.117-.092.115a.555.555,0,0,1-.073-.023c-.026-.011-.033-.006-.039.007s.008.03.031.042c.08.031.205.082.251.1.115.047.243.119.535.25.077.035.094.041.124-.018a2.293,2.293,0,0,0,.1-.266l0-.052-.033.029c-.042.094-.078.136-.139.145a.459.459,0,0,1-.188-.051c-.2-.087-.223-.138-.178-.311.015-.072.08-.3.1-.387l.052-.2.019-.018c.047.018.241.107.275.127a.145.145,0,0,1,.083.148.655.655,0,0,1-.017.092l.011.028.031-.036c.006-.019.036-.121.053-.165.042-.124.06-.161.065-.175l-.009-.026-.039.022c-.026.016-.057.012-.107-.007s-.268-.111-.311-.129l-.007-.036.17-.631.022-.017c.039.017.243.113.271.132.1.059.108.1.109.148a.37.37,0,0,1-.013.1l.009.04.025-.017c.014-.033.046-.136.056-.159.038-.113.057-.138.06-.156l0-.029Zm2.349.5c-.061-.017-.126-.047-.2-.07a2.13,2.13,0,0,0-.3-.057.753.753,0,0,0-.668.205,1.082,1.082,0,0,0-.286.692,1.172,1.172,0,0,0,.2.8.937.937,0,0,0,.688.366.922.922,0,0,0,.373-.019c.035-.014.045-.028.06-.071a3.422,3.422,0,0,0,.068-.342l-.015-.043c-.016,0-.021.007-.031.048a.394.394,0,0,1-.081.163c-.091.116-.2.128-.388.11-.274-.03-.627-.386-.582-1.009a.982.982,0,0,1,.235-.658.456.456,0,0,1,.4-.118.557.557,0,0,1,.407.208.435.435,0,0,1,.062.247c0,.039,0,.063.017.063s.025-.019.029-.058c.007-.056.013-.2.027-.281s.016-.124.018-.144a.031.031,0,0,0-.028-.035m2.2,1.672a1.031,1.031,0,0,1-.1,0c-.061,0-.081-.058-.1-.128-.02-.112-.041-.32-.064-.558l-.045-.465c-.034-.392-.043-.471-.047-.553s.008-.139.062-.161a.213.213,0,0,1,.061-.017c.023,0,.034-.011.033-.031s-.019-.019-.045-.017c-.081.013-.208.042-.257.048s-.186.021-.3.042c-.029,0-.043.011-.042.028s.016.022.039.019a.332.332,0,0,1,.079-.007c.07.01.089.048.1.14s.019.153.058.552l0,.054-.01.023-.783.118-.015-.014,0-.054c-.038-.395-.045-.473-.048-.555s.006-.14.061-.161a.175.175,0,0,1,.06-.018c.025,0,.035-.011.035-.031s-.018-.019-.047-.017c-.078.012-.209.041-.257.048s-.183.022-.3.042c-.028,0-.043.013-.04.028s.013.023.036.019a.352.352,0,0,1,.08-.007c.07.011.091.048.1.138s.019.153.056.555l.044.46c.024.239.044.448.044.559,0,.075-.007.138-.045.153a.218.218,0,0,1-.072.018c-.025.008-.032.017-.032.03s.017.021.044.019c.081-.013.212-.04.258-.049s.187-.021.32-.042c.025,0,.041-.013.038-.035s-.011-.016-.034-.013a.623.623,0,0,1-.106.006c-.063,0-.078-.057-.093-.127-.021-.111-.039-.321-.066-.561l-.02-.232.011-.017.782-.118.013.013.021.229c.024.241.044.447.046.558,0,.076-.008.136-.046.156a.319.319,0,0,1-.075.019c-.024.006-.03.013-.03.028s.018.023.045.016c.082-.011.207-.037.256-.047s.187-.021.321-.04c.022,0,.042-.015.038-.035s-.011-.018-.035-.012m1.152-.4a.722.722,0,0,1-.1.024c-.062.012-.086-.028-.108-.094-.034-.107-.077-.307-.132-.552l-.1-.449c-.088-.384-.1-.453-.119-.538s-.009-.134.042-.169a.131.131,0,0,1,.059-.027l.026-.039c0-.018-.022-.018-.047,0-.074.024-.189.072-.239.1s-.184.057-.26.084c-.034.008-.046.022-.043.039l.037.012a.207.207,0,0,1,.072-.014c.048,0,.079.033.1.113s.039.151.125.537l.1.448c.056.245.1.444.113.555.011.076.008.121-.029.146a.21.21,0,0,1-.069.039c-.024.006-.028.019-.027.031s.02.023.046.011c.078-.029.2-.083.248-.1s.182-.057.312-.1c.021-.01.034-.024.031-.041s-.014-.017-.037-.007m1.33-.955c-.01-.03-.014-.042-.03-.037l-.009.048a.484.484,0,0,1,0,.17c-.03.092-.1.13-.206.18-.15.074-.207.081-.251.063s-.1-.2-.2-.513l-.13-.432c-.113-.369-.133-.44-.153-.519s-.019-.141.028-.18a.493.493,0,0,1,.073-.042c.026-.012.034-.024.028-.041s-.018-.017-.045,0c-.076.036-.214.115-.261.138s-.175.076-.266.121c-.029.013-.042.028-.035.042s.015.016.037.008a.273.273,0,0,1,.067-.023c.069-.014.1.014.125.1s.049.147.161.52l.131.433c.068.227.128.419.147.527.015.074.02.136-.015.162a.194.194,0,0,1-.066.043c-.024.013-.028.025-.024.037s.02.019.044.006c.078-.036.195-.107.24-.126.156-.08.289-.128.566-.263.1-.048.106-.064.1-.123a2.794,2.794,0,0,0-.055-.3" transform="translate(-363.545 -255.766)" fill="#dde5eb"/>
      <path id="Trazado_8" data-name="Trazado 8" d="M528.32,345.084a15.567,15.567,0,0,0,2.263,4.7h.249a15.275,15.275,0,0,1-2.315-4.7Zm1.1,0c-.09.256-.163.451-.171.478-.021.057-.04.092-.031.121s.038.013.075,0l1.142-.562a.709.709,0,0,1,.064-.031h-.424l-.478.264v-.008c.009-.029.047-.124.1-.256Zm1.283,0a.619.619,0,0,1,.037.092l.028.03c.015-.01.011-.03,0-.063a.61.61,0,0,1-.019-.059Zm.781,0a9.813,9.813,0,0,0,3.883,4.7h.424a8.455,8.455,0,0,1-2.566-2.135,10.6,10.6,0,0,1-1.547-2.572Zm2.1,0c0,.016,0,.035,0,.059h-.023a.047.047,0,0,0-.032.029l-.006.013a.221.221,0,0,0,0,.047c-.009.091-.039.407-.128,1.515v.02a.39.39,0,0,0,.123.269.429.429,0,0,0,.257.109h.012a.385.385,0,0,0,.248-.109.4.4,0,0,0,.122-.269v-.02c-.029-.389-.047-.583-.054-.678a.486.486,0,0,0-.009-.1v-.013c0-.033-.015-.171-.063-.759l-.007-.053h-.048v-.059h-.091l0,.059h-.2c0-.024,0-.043,0-.058Zm1.684,0a.039.039,0,0,0,.007.016h0l.091.193.09.218a.771.771,0,0,0,.193.315.68.68,0,0,0,.164.128.763.763,0,0,0-.131.165.893.893,0,0,0-.108.264v0l-.022.238v.01l.043.256v.006l0,.006a.828.828,0,0,0,.14.25,1.086,1.086,0,0,0,.146.139l-.106.113,0,0a.576.576,0,0,0-.088.258.839.839,0,0,0-.009.1,1.126,1.126,0,0,0,.024.181.721.721,0,0,0,.094.228c.026.041.064.094.064.094l.006,0,.061.059h.008l.033.017a.138.138,0,0,0-.038.045.293.293,0,0,0-.042.154v.024a.317.317,0,0,0,.038.156.187.187,0,0,0,.119.1l.094.046.015.035.014.024h.009l0,.165h.045l.043.021-.01.019-.033-.04-.043.012a.268.268,0,0,0,.026.08.125.125,0,0,0,.108.083.135.135,0,0,0,.119-.1.258.258,0,0,0,.019-.085l.006-.22a.323.323,0,0,0,.154-.111.365.365,0,0,0,.1-.247v-.011a.335.335,0,0,0-.06-.2.6.6,0,0,0,.168-.266.747.747,0,0,0,.053-.28l0-.064a.6.6,0,0,0-.049-.251.461.461,0,0,0-.147-.2h0l-.01-.007a.644.644,0,0,0,.089-.066.693.693,0,0,0,.175-.231A.882.882,0,0,0,537,346.6v-.072a.833.833,0,0,0-.011-.14.7.7,0,0,0-.194-.4l.031-.025h0l.155-.173,0,0,.138-.229v0c.034-.077.047-.117.082-.192.016-.04.024-.063.033-.082a.663.663,0,0,1,.054-.106v0l0,0a.224.224,0,0,1,.034-.064c0-.006.008-.011.01-.018l-.113,0a.047.047,0,0,0-.009.019v0a1.119,1.119,0,0,0-.06.121.545.545,0,0,1-.034.078c-.03.075-.051.122-.078.193l-.128.211-.145.159-.067.052-.145-.1-.024-.018v-.031l0-.08.038-.021,0,0,.172-.179.122-.244,0,0a1.11,1.11,0,0,1,.06-.156h-.108c-.012.031-.025.064-.04.109h0l-.111.215-.139.147.012-.471h-.092l-.015.526v.043l0,.083h0l-.07-.047-.2-.107-.013-.5h-.092l.011.448-.018-.011a.38.38,0,0,0-.034-.028.652.652,0,0,1-.1-.081.3.3,0,0,1-.067-.06c-.119-.2-.12-.2-.157-.27l-.111,0c.077.148.049.092.194.34a.3.3,0,0,0,.054.06c.034.028.074.058.108.082l.057.048,0,0,0,.007.07.035.046.029.048.027.15.081.109.072.046.033.045.034.02.012.155.106.017.012a.531.531,0,0,1,.168.342.494.494,0,0,1,.013.117l0,.068a.675.675,0,0,1-.054.282.463.463,0,0,1-.147.193.457.457,0,0,1-.15.1l-.043-.022-.008-.007-.044-.028-.046-.033-.051-.037a.214.214,0,0,0,.052-.024.3.3,0,0,0,.048-.029.022.022,0,0,0,.009-.006.351.351,0,0,0,.038-.028.691.691,0,0,0,.131-.157.326.326,0,0,0,.069-.188l0-.031a.547.547,0,0,0-.09-.278h0a.3.3,0,0,0-.086-.1.419.419,0,0,0-.036-.027s-.007,0-.009-.008l-.045-.034-.111-.071c-.051-.029-.092-.048-.135-.07v0h0l-.027-.013-.019-.006-.047-.021-.182-.077h0l-.017-.007h0a.5.5,0,0,1-.189-.133.669.669,0,0,1-.169-.275l-.094-.22-.071-.156Zm3.582,0,0,4.7h.186l0-4.7Zm.72,0c.006,0,.012.016.019.019a.692.692,0,0,0,.966,0c.008,0,.014-.014.021-.019h-.167a.625.625,0,0,1-.673,0Zm1.222,0-.83,1.626.011.051-.011.019a.444.444,0,0,1,.078.279v.055a.554.554,0,0,1-.043.216l.031.086,1.3.3a.362.362,0,0,0,.311.3h.027a.315.315,0,0,0,.278-.179l.5.141.031.658,0,0a.162.162,0,0,0,.139.179c.076,0,.137-.076.14-.176l.033-.56.6.191.048-.1,0,0,1.235-2.237-.008-.082a.306.306,0,0,1-.085-.15.609.609,0,0,1-.029-.185.38.38,0,0,1,.019-.118l.02-.035-.044-.092a1.7,1.7,0,0,1-.194.013,1.2,1.2,0,0,1-.294-.04,1.859,1.859,0,0,1-.393-.148s-.008,0-.009,0l-.2,0a1.1,1.1,0,0,0,.177.111,2.03,2.03,0,0,0,.408.156,1.412,1.412,0,0,0,.311.043.973.973,0,0,0,.1-.007l-.609,1.1-.554,1-.056.013h0c-.006,0-.01,0-.014,0a.913.913,0,0,1-.18.024h0a.6.6,0,0,1-.215-.041l.135-2.406h-.094l-.133,2.367,0,.06,0,.062-.02.355,0,.06,0,.058-.033.581c0,.034-.019.064-.046.064s-.046-.03-.046-.064v0l-.032-.62,0-.063,0-.063-.022-.42-.006-.064,0-.074-.077-1.531-.012-.205-.026-.5H542.3l.032.676-.71,1.5a.633.633,0,0,0-.172-.2.468.468,0,0,0-.345-.14h0l-.38.025h0c-.01,0-.045,0-.086,0a.084.084,0,0,0-.025,0c-.059,0-.131-.015-.161-.019a.464.464,0,0,1-.047-.018.559.559,0,0,1-.089-.042.466.466,0,0,1-.072-.039l-.019-.01-.151-.087h0l.837-1.633Zm3.853,0c.009,0,.014.016.022.019a.671.671,0,0,0,.481.2.682.682,0,0,0,.486-.2c.007,0,.013-.014.02-.019h-.167a.627.627,0,0,1-.338.1.618.618,0,0,1-.334-.1Zm1.561,0a10.629,10.629,0,0,1-1.547,2.571,8.412,8.412,0,0,1-2.566,2.134h.428a9.821,9.821,0,0,0,3.884-4.707Zm.818,0c-.02.048-.043.109-.064.168-.008.029-.008.048.006.058s.019,0,.028-.029a.793.793,0,0,1,.05-.119c.031-.069.073-.068.125-.045.084.036.234.123.418.225l.331.191c.288.164.339.191.4.232a.132.132,0,0,1,.078.148c-.007.03-.013.054-.02.077l0,.047c.011.007.023-.01.035-.04.031-.092.074-.239.1-.3s.084-.216.115-.305c.012-.04.014-.059,0-.068l-.031.028c-.012.029-.026.058-.039.085-.03.045-.07.051-.135.019s-.113-.059-.4-.222l-.267-.148Zm2.35,0a15.26,15.26,0,0,1-2.316,4.7h.252a15.563,15.563,0,0,0,2.261-4.7Zm-17.741,4.7a.542.542,0,0,1-.048-.077.153.153,0,0,1,.024-.185c.046-.06.088-.113.312-.392l.26-.321a4.764,4.764,0,0,1,.326-.381c.048-.047.088-.077.122-.047a.355.355,0,0,1,.059.064l.034.013-.013-.055c-.058-.077-.153-.189-.185-.237s-.125-.171-.218-.3l-.04-.016.008.043a.883.883,0,0,1,.067.106c.037.06.015.112-.022.171-.057.087-.176.234-.311.4l-.594.733-.04.022a.367.367,0,0,1-.061-.069.441.441,0,0,1-.087-.261.579.579,0,0,1,.139-.387.278.278,0,0,1,.438-.048c.031.041.044.048.055.034l0-.039-.026-.045a.422.422,0,0,0-.714-.022.525.525,0,0,0-.1.311.741.741,0,0,0,.179.46c.067.087.158.189.216.269.034.048.11.157.179.251Zm2.419,0c-.056-.045-.132-.1-.2-.151-.026-.019-.041-.021-.049-.007l.024.041a.529.529,0,0,1,.067.059.139.139,0,0,1,.035.058Zm9.918,0c-.031-.09-.035-.122-.042-.138l-.018-.013-.026.031a.768.768,0,0,1-.074.065c-.009.006-.034.027-.073.054Zm-12.594-3.454a.719.719,0,0,0-1.171-.322,1.117,1.117,0,0,0-.2,1.425c.34.666.849.6,1.145.349a1.163,1.163,0,0,0,.224-1.452m-.434,1.194c-.43.358-.686.161-.818-.092a.963.963,0,0,1,.3-1.168c.5-.418.741-.107.818.046a.991.991,0,0,1-.3,1.214m16.583-1.428a.638.638,0,0,0-.649-.148,1.093,1.093,0,0,0-.573.6,1.559,1.559,0,0,0-.164.431.1.1,0,0,0,.021.1,1.685,1.685,0,0,0,.205.239l.036,0c.008-.014,0-.028-.019-.057a.432.432,0,0,1-.077-.17.67.67,0,0,1,.11-.484.6.6,0,0,1,.968-.186.882.882,0,0,1,.346.573.816.816,0,0,1-.1.5.68.68,0,0,1-.333.36.241.241,0,0,1-.205-.046c-.023-.018-.042-.024-.05,0s0,.034.027.055.13.112.184.163.076.077.088.088l.039-.016c.037-.059.09-.118.143-.194a2.707,2.707,0,0,0,.179-.308,1.381,1.381,0,0,0,.171-.85,1.012,1.012,0,0,0-.342-.652m-1.5,1.481a.374.374,0,0,1-.013-.328l.043-.062.007-.037-.044.018c-.075.1-.147.206-.165.228-.042.058-.11.135-.155.2l-.01.048.033-.013.023-.027c.045-.059.077-.054.1-.019a.492.492,0,0,1,.071.139l.134.367v.028l-.32.424-.027.007-.427-.235a.049.049,0,0,1-.022-.06l.006-.042c-.01-.016-.026.007-.054.042-.119.147-.224.285-.273.355s-.065.088-.051.107l.03-.012a.436.436,0,0,1,.065-.072c.036-.03.1-.064.289.031.317.158,1.151.6,1.268.655.047.022.07.03.083.015s.006-.052-.021-.128Zm.3,1.32-.5-.282V348.6l.263-.35.017.008.232.624.006.028Zm-3.994-2.935.066,1.285a.556.556,0,0,0-.353-.141.586.586,0,0,0-.1.01.553.553,0,0,0-.2.066Zm-.406,1.74-.052.03a.22.22,0,0,1-.216.156h-.022a.27.27,0,0,1-.238-.243l-.037-.041-1.262-.3a.745.745,0,0,0,.026-.185l0-.066a.688.688,0,0,0-.023-.187l.069.042a1.729,1.729,0,0,0,.188.092.342.342,0,0,0,.063.027c.026,0,.082.008.141.014s.142.012.142.012h0l.382-.027a.441.441,0,0,1,.294.116.6.6,0,0,1,.183.262l.074.015a.475.475,0,0,1,.316-.188.455.455,0,0,1,.414.138h0c.008.007.018.013.028.021l.025.457Zm.861.247.019-.344a.7.7,0,0,0,.223.04.829.829,0,0,0,.2-.027.026.026,0,0,0,.013,0,1.512,1.512,0,0,0-.025.216l0,.059s0,.012,0,.014a.473.473,0,0,0,.01.048.038.038,0,0,0,0,.013c.012.049.029.093.044.134Zm1.663-2.374a.775.775,0,0,0,.032.148.461.461,0,0,0,.082.168l-1.195,2.166,0,0a.649.649,0,0,1-.038-.109.589.589,0,0,1-.018-.078l0-.04v0a1.18,1.18,0,0,1,.021-.181c.008-.039.018-.071.019-.088l.079-.141,1.023-1.853v.006M534.08,345.936Zm-.143-.675c.031.352.046.529.054.624.008.074.009.091.01.1l0,0h0v0l0,0c0,.024.012.157.061.766v.01a.292.292,0,0,1-.285.259.329.329,0,0,1-.207-.083.288.288,0,0,1-.088-.176l0-.01c.061-.772.095-1.16.11-1.357,0-.068.01-.112.012-.14Zm2.135,3.459h0v0a.1.1,0,0,1-.065-.054.148.148,0,0,1-.024-.087v-.018a.18.18,0,0,1,.024-.088.286.286,0,0,1,.07-.066l.091.031v.033l.009.3Zm.289.37v0l-.012.041c-.008.016-.013.023-.033.023l-.03-.029-.01-.027,0-.011v-.006l0-.148,0-.028-.009-.441.051.024a.548.548,0,0,0,.069.027Zm.266-.574h0a.222.222,0,0,1-.075.164.252.252,0,0,1-.084.07v-.091c0-.058.007-.081.007-.147v0s0-.006,0-.013a.113.113,0,0,0-.02-.056.047.047,0,0,0-.023-.017.1.1,0,0,0-.041-.021l-.007,0-.031-.013a.612.612,0,0,0-.1-.041.179.179,0,0,0-.045-.017l-.031-.007-.016-.008-.186-.078-.053-.051-.014-.023-.038-.053a.518.518,0,0,1-.078-.192.714.714,0,0,1-.02-.145c0-.024,0-.049,0-.081a.514.514,0,0,1,.068-.2l.128-.139.094.048.074.04.015.01.009,0,.022.015-.046.036c-.016.017-.032.031-.05.053a.312.312,0,0,0-.083.169.446.446,0,0,0-.012.1.323.323,0,0,0,.021.112.211.211,0,0,0,.077.109l.063.047a.059.059,0,0,1,.02.012l.028.023a.289.289,0,0,1,.047.029c.015.006.032.014.051.024,0,0,.006,0,.008.006l0,0s0,0,0,0c.02.011.043.027.068.043s.033.021.046.029,0,0,0,0a.162.162,0,0,0,.026.015l.013.01c.019.01.034.022.049.03l.034.024h0l0,0a.194.194,0,0,1,.066.157Zm-.475-.562a.046.046,0,0,1-.013-.011.087.087,0,0,1-.042-.053.293.293,0,0,1-.009-.066.49.49,0,0,1,.006-.066.218.218,0,0,1,.05-.11Zm.081-.386a.567.567,0,0,1,.06-.041l.106.065-.008.367-.1.093c-.014-.011-.031-.02-.046-.03Zm.52-.068a.469.469,0,0,1,.037.194v.06a.7.7,0,0,1-.047.237.517.517,0,0,1-.162.237c-.027-.019-.063-.042-.1-.062l0,0,0,0h0s-.006,0-.01,0l-.029-.021-.03-.019c-.006,0-.008-.007-.012-.01l.044-.041.046-.04.056-.051,0-.007,0,0a.3.3,0,0,0,.065-.193l0-.035v0a.338.338,0,0,0-.076-.173c-.013-.015-.026-.027-.036-.04l-.029-.028,0,0-.012-.007-.047-.027-.134-.084h0l-.038-.019-.032-.016-.008,0-.007-.006-.047-.025-.1-.053-.063-.039-.024-.016a.558.558,0,0,1-.053-.045.8.8,0,0,1-.089-.089.617.617,0,0,1-.117-.2l-.039-.235.019-.223h0a.823.823,0,0,1,.093-.217.587.587,0,0,1,.166-.187h0l.176.074,0,0c0,.051,0,.111,0,.15h0c-.026.024-.044.057-.06.071a.6.6,0,0,0-.111.208.517.517,0,0,0-.019.126l0,.052a.367.367,0,0,0,.074.164.513.513,0,0,0,.131.133c.008.006.014.014.023.021a.043.043,0,0,1,.012.011c.006,0,.009.009.012.011l.046.041c.017.016.034.03.054.046,0,0,.006,0,.009.007l0,0,.127.083.046.031h0l0,0,.039.023.05.029.089.049a.35.35,0,0,1,.112.157m-.267.37,0-.182a.13.13,0,0,1,.023.06l0,.023a.181.181,0,0,1-.031.1m-.376-1.48.011.449a.262.262,0,0,1-.057-.064.214.214,0,0,1-.053-.11l0-.03a.444.444,0,0,1,.012-.088.462.462,0,0,1,.088-.157m.089-.27a.88.88,0,0,1,.089.052c.06.035.094.059.147.1l-.015.615a1.3,1.3,0,0,1-.154.082.414.414,0,0,1-.048-.047l-.018-.643v-.042c0-.028,0-.069,0-.112m.316.681.011-.456.021.031a.434.434,0,0,1,.07.212v.019a.221.221,0,0,1-.046.12c-.019.027-.038.052-.056.074" transform="translate(-356.458 -245.25)" fill="#dde5eb"/>
      <path id="Trazado_9" data-name="Trazado 9" d="M526.2,337.474a17.471,17.471,0,0,0,.515,2.349h.2a17.046,17.046,0,0,1-.525-2.35Zm.721,0,.011.068c.01.087.022.187.027.261a.882.882,0,0,1-.01.12c0,.014.015.021.045.023a1.736,1.736,0,0,0,.24,0c.022,0,.03-.013.029-.034l-.029-.022a.223.223,0,0,1-.077-.024c-.05-.031-.068-.092-.095-.241l-.024-.152Zm2.24,0a12.705,12.705,0,0,0,.719,2.349h.2a12.2,12.2,0,0,1-.738-2.35Zm.932,0,.288.206v.037a1.851,1.851,0,0,0,.019.272h0a1.7,1.7,0,0,0,.071.293c.015.046.025.069.044.117a1.368,1.368,0,0,0,.1.2,1.751,1.751,0,0,0,.121.168h0c.049.053.081.082.127.13h0c.054.054.086.086.146.136a1.25,1.25,0,0,0,.185.134c.06.041.1.062.159.1s.1.045.161.071.1.035.157.056l.122.043.114.063a.18.18,0,0,1,.069.133v.157c0,.01,0,.02,0,.04l.093,0v-.193a.308.308,0,0,0-.117-.239h0l-.121-.066h-.007l-.126-.045c-.061-.022-.1-.034-.154-.057s-.093-.04-.153-.07-.091-.051-.151-.086a1.6,1.6,0,0,1-.175-.133,1.477,1.477,0,0,1-.142-.13,1.341,1.341,0,0,1-.124-.126,1.221,1.221,0,0,1-.11-.151,1.038,1.038,0,0,1-.094-.183.722.722,0,0,1-.039-.1,1.274,1.274,0,0,1-.067-.27v0a1.1,1.1,0,0,1-.022-.224v-.028c0-.04,0-.074,0-.1a1.322,1.322,0,0,1,.018-.141H530.4a.441.441,0,0,0-.009.075l-.11-.075Zm.908,0a1.27,1.27,0,0,0-.025.244v.07a1.091,1.091,0,0,0,.014.194.858.858,0,0,0,.043.168l.014.039c.037.089.057.142.076.191a.96.96,0,0,0,.079.151,1,1,0,0,0,.216.241,1.268,1.268,0,0,0,.159.134h0l.268.128.227.121h0a.3.3,0,0,1,.076.034.69.69,0,0,1,.072.069.313.313,0,0,1,.055.177l0,.389h.093l0-.392h0a.415.415,0,0,0-.1-.267c-.035-.035-.049-.054-.065-.069v-.2a.365.365,0,0,0,.132.027.381.381,0,0,0,.212-.07.534.534,0,0,0,.254-.364l.728-.507a2.36,2.36,0,0,0-.041.4h-.164v.442h1.115l.026,1.007h.092l-.025-1.007v0h.35v0l-.026,1.007h.092l.027-1.007h1.062v-.442H535.9a2.339,2.339,0,0,0-.09-.6.3.3,0,0,0,.023-.118v0h.02a.211.211,0,0,0,.19-.181l-.1,0a.109.109,0,0,1-.086.057h-.4v.113h.285a.121.121,0,0,1-.106.129h-.368v.118h.368a.158.158,0,0,0,.1-.035,2.091,2.091,0,0,1,.073.518h-2.221a2.269,2.269,0,0,1,.068-.508.19.19,0,0,0,.089.025h.368v-.118h-.368a.1.1,0,0,1-.073-.034l0-.01a.04.04,0,0,1-.013-.021.132.132,0,0,1-.016-.065h.284v-.113h-.4a.1.1,0,0,1-.085-.057h-.107a.214.214,0,0,0,.192.179h.02a.237.237,0,0,0,0,.028.056.056,0,0,0,0,.013c0,.006,0,.012.006.019a.233.233,0,0,0,.027.071c0,.012-.007.023-.009.035l-.8.559a.406.406,0,0,0-.145-.043.725.725,0,0,0,.147-.413v0l.508-.444h-.16l-.423.368,0,.008a.436.436,0,0,0-.087-.008.31.31,0,0,0-.034,0,.657.657,0,0,0,.112-.371l-.091,0a.527.527,0,0,1-.158.377.32.32,0,0,1-.206.11.37.37,0,0,1,0-.064.524.524,0,0,1,.071-.256.559.559,0,0,1,.072-.1.648.648,0,0,1,.05-.046l.03-.017h-.184c-.015,0-.028.011-.044.014v-.013h-.13s0,.011,0,.014c-.015,0-.03-.011-.044-.016h-.179a.013.013,0,0,1,.01,0,.283.283,0,0,1,.093.082.792.792,0,0,1,.056.081.5.5,0,0,1,.069.256.491.491,0,0,1,0,.064.312.312,0,0,1-.2-.11.528.528,0,0,1-.158-.378h-.094a.654.654,0,0,0,.113.368.3.3,0,0,0-.033,0,.375.375,0,0,0-.12.016l.008-.016-.416-.368Zm3.071.115h.094v-.115h-.094Zm1.143,0h.093v-.115h-.093Zm2.033,2.234h.183v-2.349h-.183Zm1.12-2.349-.579,1.747h-.022v.059a.773.773,0,0,0,.2.542h.166a.46.46,0,0,1-.093-.07.632.632,0,0,1-.179-.413h1.218a.644.644,0,0,1-.183.413c-.028.027-.059.051-.09.075l.167,0a.772.772,0,0,0,.2-.542v-.017l0,0,0-.006v-.034h-.012l-.588-1.748h-.1v0h-.007l0,0Zm2.2,0,.1,1.945c-.071,0-.135.02-.209.02l-.039,0a1.571,1.571,0,0,1-.433-.049,1.045,1.045,0,0,1-.407-.223l-.063.019-.327.638h.112l.269-.527a1.047,1.047,0,0,0,.4.205,1.559,1.559,0,0,0,.449.053l.044,0c.088,0,.155-.019.216-.021l.015.285h.093l-.014-.27,0-.063,0-.06-.1-1.955Zm.817,0-.122,2.192,0,.076,0,.071v.01h.094l0-.084a.157.157,0,0,1,.034-.011,1.01,1.01,0,0,1,.21-.014.347.347,0,0,1,.2.076.534.534,0,0,1,.046.037l.2,0a1.26,1.26,0,0,1-.2-.134.415.415,0,0,0-.249-.094,1.362,1.362,0,0,0-.208.012.134.134,0,0,1-.026,0l.118-2.137Zm2.059,0-.576,1.747h-.026v.059a.767.767,0,0,0,.2.542h.169a.436.436,0,0,1-.093-.07.636.636,0,0,1-.179-.413h1.216a.642.642,0,0,1-.18.413,1.119,1.119,0,0,1-.093.075l.167,0a.776.776,0,0,0,.2-.542v-.059h-.025l-.575-1.747h-.1v0h0v0Zm1.9,0a12.345,12.345,0,0,1-.738,2.353l.2,0a12.756,12.756,0,0,0,.721-2.35Zm1.322,0a.853.853,0,0,0,.267.1.621.621,0,0,0,.488-.1Zm1.633,0a17.371,17.371,0,0,1-.526,2.352l.2,0a17.812,17.812,0,0,0,.517-2.349Zm-20.209,2.349c.06-.157.135-.366.2-.57.114-.356.267-.8.335-1.013a.213.213,0,0,0,.016-.105c-.008-.023-.028-.023-.068,0l-1.219.6c-.108.052-.154.052-.191-.006a.313.313,0,0,1-.029-.07c-.011-.03-.018-.042-.031-.034s-.01.034,0,.065c.036.118.07.21.078.234.016.052.049.173.088.3.012.036.024.06.038.053s.015-.018.006-.048a.512.512,0,0,1-.031-.134c0-.07.031-.109.148-.173l.852-.471,0,.014c-.019.058-.189.527-.267.763-.068.205-.141.416-.2.6Zm.808,0c.12-.052.166-.059.2-.013a.051.051,0,0,1,.006.013h.047c-.033-.1-.066-.182-.071-.2-.014-.046-.039-.146-.089-.3-.011-.035-.022-.054-.04-.047s-.008.023,0,.051a.433.433,0,0,1,.026.134c0,.053-.036.112-.184.192l-.318.177Zm4.875,0-.018-.04h0a.336.336,0,0,0-.231-.232.208.208,0,0,0-.078-.013.276.276,0,0,0-.152.053.189.189,0,0,1-.065.011l-.032,0a.21.21,0,0,1-.141-.066l-.108-.125-.01-.035a.329.329,0,0,1,.216-.2.461.461,0,0,1,.121-.023.274.274,0,0,1,.117.03l0,0,.2.106a1.718,1.718,0,0,1,.189.169.435.435,0,0,1,.067.087l.033.047.009.017h0v0c.053.1.086.173.11.216h.111c-.022-.043-.06-.115-.145-.282l-.017-.025a.569.569,0,0,0-.055-.081.475.475,0,0,0-.061-.077,2.513,2.513,0,0,0-.2-.18v0l-.2-.106h0a.386.386,0,0,0-.151-.033.436.436,0,0,0-.146.025.44.44,0,0,0-.263.238l-.012.006-.141.052h-.115l.112.107,0,.006h.052l.124.033.007,0,.1.118v0l0,0a.288.288,0,0,0,.185.087l.042,0a.231.231,0,0,0,.094-.021h.006l.008,0a.176.176,0,0,1,.111-.04.164.164,0,0,1,.06.01.232.232,0,0,1,.164.157Zm1.566,0a.01.01,0,0,1,0,0,1.381,1.381,0,0,1,.125-.239.837.837,0,0,1,.162-.18,1.143,1.143,0,0,1,.2-.126A1.731,1.731,0,0,1,536,339.2h0a.268.268,0,0,1,.117-.023h.046a.336.336,0,0,1,.173.068v0l.121.1.006.062-.114.1-.11.076a.426.426,0,0,1-.1.016.375.375,0,0,1-.077-.007.162.162,0,0,1-.054-.027.2.2,0,0,0-.086-.024h-.011a.24.24,0,0,0-.195.141l-.059.086a.207.207,0,0,0-.034.063l.114,0c.012-.016.031-.041.053-.075.04-.066.065-.087.128-.093l0,0,.047.021a.3.3,0,0,0,.079.03.334.334,0,0,0,.09.01.4.4,0,0,0,.13-.022h.006l.119-.085.124-.1.129-.033h.05l.069-.068.048-.046H536.7l-.125-.083-.022-.012-.006.019v0l-.161-.135h0a.372.372,0,0,0-.21-.083l-.056,0a.352.352,0,0,0-.143.031v0a1.1,1.1,0,0,0-.187.08,1.472,1.472,0,0,0-.207.133h0a1.031,1.031,0,0,0-.181.2,1.3,1.3,0,0,0-.137.256c-.011.023-.02.043-.028.064Zm10.817,0-.069-.036c-.181-.105-.33-.192-.406-.246-.053-.042-.079-.076-.07-.126a.4.4,0,0,1,.023-.091c.01-.029.008-.04,0-.046s-.025.006-.038.037c-.033.1-.08.25-.1.3-.012.039-.041.115-.073.2Zm1.345-1.452c-.012-.007-.02.008-.027.035a.678.678,0,0,1-.028.081c-.035.075-.074.083-.141.057s-.118-.045-.412-.18l-.344-.147a4.171,4.171,0,0,1-.414-.2c-.055-.036-.092-.065-.089-.117,0-.024.009-.059.018-.1s0-.041-.007-.046-.024.012-.029.041c-.031.1-.065.261-.081.317-.055.2-.11.363-.208.722-.034.129-.027.145.013.18a1.564,1.564,0,0,0,.212.135c.024.011.033.011.041-.008l-.024-.036a.3.3,0,0,1-.1-.117.492.492,0,0,1,.025-.316c.05-.194.081-.255.123-.282s.184.024.435.132l.344.151c.3.129.351.157.413.187a.123.123,0,0,1,.084.141.42.42,0,0,1-.021.1c-.007.031-.007.047,0,.055s.023-.014.034-.047c.026-.1.068-.28.085-.344s.066-.22.1-.337c.008-.039.013-.057,0-.064m-3.906-.765.529,1.616H543.6Zm-5.17,0v1.618h-.536Zm.093,0,.544,1.616h-.544Zm4.983.007v1.609h-.528Zm-10.886.345c.02,0,.04,0,.059,0a.5.5,0,0,1-.187.358c-.107.082-.147.1-.215.1h-.03a.505.505,0,0,1,.1-.3.335.335,0,0,1,.275-.162m-.37.124a.433.433,0,0,0-.033.065v-.064h.033m-.362.842-.263-.13h0a.594.594,0,0,1-.148-.116,1.043,1.043,0,0,1-.2-.223.756.756,0,0,1-.068-.132.5.5,0,0,1-.028-.072l.325.235.006-.014a.54.54,0,0,0,.257.377.376.376,0,0,0,.212.07.342.342,0,0,0,.144-.033v.163a.022.022,0,0,1-.013-.006Zm-.034-.6a.5.5,0,0,1-.187-.355.261.261,0,0,1,.06-.007.328.328,0,0,1,.272.162.513.513,0,0,1,.1.3h-.032c-.068,0-.106-.018-.214-.1m.253.45a.316.316,0,0,1-.125.033.418.418,0,0,1-.173-.058.432.432,0,0,1-.2-.27.288.288,0,0,1,.3.037.432.432,0,0,1,.193.258m-.544-.829.007-.011a.689.689,0,0,0,.147.4.405.405,0,0,0-.166.051l-.439-.315a.892.892,0,0,1-.036-.279v-.07a1.054,1.054,0,0,1,.015-.193Zm.533.595.03,0v.043a.239.239,0,0,0-.03-.041m0-.454h.032v.051a.573.573,0,0,0-.032-.052m.123.45h.017l-.017.028Zm.305.212a.417.417,0,0,1-.173.058.333.333,0,0,1-.126-.033.43.43,0,0,1,.194-.258.338.338,0,0,1,.182-.064.317.317,0,0,1,.117.027.429.429,0,0,1-.195.27m1.927-.051h-1.016v-.2h2.527v.2Zm1.709.531-.053.06-.013.019.013.018.036.043.017.019.048-.063.014-.018Zm-2.954,0-.047.06-.018.019.018.018.034.043.013.019.05-.063.014-.018-.05-.063Z" transform="translate(-354.851 -239.986)" fill="#dde5eb"/>
      <path id="Trazado_10" data-name="Trazado 10" d="M525.38,329.86a18.076,18.076,0,0,0,.2,2.356h.186a17.789,17.789,0,0,1-.2-2.355Zm.712,0c0,.07.008.138.008.175,0,.074,0,.244,0,.343,0,.04.007.063.019.063s.021-.019.019-.042a.552.552,0,0,1,.006-.1c.009-.058.044-.086.112-.1s.125-.011.439-.022l.363-.018a3.7,3.7,0,0,1,.452-.006c.059.006.094.019.1.07,0,.024.008.058.01.1s.008.043.017.043.02-.021.02-.054c0-.109-.013-.27-.016-.333,0-.027,0-.071,0-.121H526.57a2.83,2.83,0,0,1-.32.011.2.2,0,0,1-.066-.011Zm2.18,0a13.5,13.5,0,0,0,.267,2.353h.177a13.094,13.094,0,0,1-.264-2.093.616.616,0,0,1,.058-.262Zm8.294,0a.58.58,0,0,1,.061.259v2.1h.181v-2.1a.543.543,0,0,1,.061-.256Zm8.36,0a.616.616,0,0,1,.058.262,13.4,13.4,0,0,1-.263,2.093h.182a13.71,13.71,0,0,0,.267-2.355Zm2.047,0a.02.02,0,0,0,.015,0c.054,0,.195.007.239.007a.223.223,0,0,0,.037-.007Zm.9,0a18.065,18.065,0,0,1-.2,2.353h.187a18.582,18.582,0,0,0,.2-2.351Zm-21.458,2.355-.035-.234.832-.19a4.038,4.038,0,0,1,.434-.082c.06,0,.108,0,.121.049a.339.339,0,0,1,.023.093c0,.03.012.04.023.039s.017-.024.014-.056c-.014-.1-.044-.268-.054-.327s-.026-.238-.048-.41c-.006-.028-.012-.047-.028-.042s-.014.014-.01.042a1.18,1.18,0,0,1,.01.136c0,.081-.04.105-.094.126a3.69,3.69,0,0,1-.437.11l-.833.188-.039-.329c-.027-.231.02-.315.071-.329l.024-.007c.03-.012.041-.017.035-.04s-.014-.017-.035-.016c-.051.012-.192.036-.238.047-.028.007-.041.011-.04.029a1.079,1.079,0,0,1,.056.245l.132.958Zm3.241,0-.522-.377-.044.1.379.274Zm.213,0c0-.019.007-.04.01-.066a1.183,1.183,0,0,1,.077-.276c0-.016.009-.027.015-.041a1.1,1.1,0,0,1,.046-.1c.017-.034.036-.068.063-.111.04-.062.063-.091.112-.153a2,2,0,0,1,.149-.167.056.056,0,0,0,.016-.016l.078-.065.1-.076h0a1.274,1.274,0,0,1,.215-.128.7.7,0,0,1,.119-.049.505.505,0,0,1,.092-.029s.007,0,.008,0a.983.983,0,0,1,.2-.045,1.1,1.1,0,0,1,.133-.01c.025,0,.056,0,.092,0a1.007,1.007,0,0,1,.493.142,1.459,1.459,0,0,1,.126.08.644.644,0,0,1,.068.054s.006,0,.007.006a.658.658,0,0,0-.082-.022H532l-.166-.039h0l-.2,0h0l-.237.018h0l-.2.058h0l-.1.051-.085.042-.024.011h0l-.137.1,0,.006-.149.153-.038.037-.027.045-.093.146v0l-.078.176,0,.006-.026.123-.025.123,0,.006a.075.075,0,0,1,0,.013h.191l-.082-.074.031-.146.073-.161.079-.13.343.463.007-.007,0,.027v.027h.094v-.033h.008a.277.277,0,0,1,.131.03l.18,0c-.009,0-.016-.011-.025-.013a.385.385,0,0,0-.091-.078l-.043-.06a.571.571,0,0,1-.1-.308.514.514,0,0,1,.017-.128.43.43,0,0,1,.243.282.962.962,0,0,1,.044.25.409.409,0,0,1,0,.057h.128a.376.376,0,0,1,0-.054.832.832,0,0,1,.045-.251.427.427,0,0,1,.242-.282.564.564,0,0,1,.016.128.554.554,0,0,1-.1.308.89.89,0,0,1-.061.078.388.388,0,0,0-.048.043.351.351,0,0,1-.049.029h.182a.315.315,0,0,1,.14-.033h.008v.03l.094,0v-.03l0-.052.009.012,1.109-1.527-.065-.076-1.113,1.518.006.006-.043,0c-.019,0-.037,0-.052,0a.681.681,0,0,0,.074-.313.841.841,0,0,0-.031-.218l.094-.262a.372.372,0,0,1,.084.037.482.482,0,0,1,.179.15l.066-.08-.121-.191,0,0h0a1.021,1.021,0,0,0-.123-.129h0l.3-.846-.086-.047-.294.833a.723.723,0,0,0-.125-.083.991.991,0,0,0-.239-.1,1.056,1.056,0,0,0-.289-.047c-.035,0-.065,0-.094,0a1.182,1.182,0,0,0-.353.057l-.029.01-.254-.666-.084.053.246.64c-.034.013-.069.027-.111.047a1.549,1.549,0,0,0-.227.139c-.047.033-.083.059-.123.091l-.44-.6-.067.078.433.584-.008.008a1.312,1.312,0,0,0-.16.176,1.342,1.342,0,0,0-.12.163c-.026.045-.046.078-.066.116l-.52-.46-.056.1.529.466a.561.561,0,0,0-.022.052,1.558,1.558,0,0,0-.083.307c0,.033-.01.06-.014.087Zm2.787,0,.048-.043c0,.013,0,.028.006.041l.107,0a.167.167,0,0,1-.02-.07h.5v-.122H532.7a.119.119,0,0,1-.105-.122h.414l.388,0a.1.1,0,0,1,.048.093v.217h.093V332a.235.235,0,0,0-.053-.156.92.92,0,0,1,.588-.206.9.9,0,0,1,.57.2.251.251,0,0,0-.056.159v.217h.095V332a.1.1,0,0,1,.047-.093l.8,0a.12.12,0,0,1-.108.122h-.593v.122h.5a.158.158,0,0,1-.02.069h.1a.334.334,0,0,0,.007-.066.233.233,0,0,0,.2-.253h0a.029.029,0,0,1,0,0h0v-.042l.006-.062h0v0h-.888a.99.99,0,0,0-.671-.267,1.011,1.011,0,0,0-.687.267h-.234l.514-.45-.053-.1-.624.548H532.5v0h0l.006.115h0a.258.258,0,0,0,.1.212l-.112.1Zm5.189,0,0-.007,0,.007h.1l-.073-.222h2.061l.012.222h.093l-.017-.343h-2.3a.251.251,0,0,1-.178-.246v-.03a.26.26,0,0,1,.174-.271h.029a.2.2,0,0,1,.149.081.3.3,0,0,1,.064.189v.019l0,.058.045,0a3.438,3.438,0,0,0,.438.028,3.187,3.187,0,0,0,.84-.126,1.765,1.765,0,0,0,.483-.171,1.572,1.572,0,0,0,.381-.29l.041-.039-.033-.048a.464.464,0,0,1-.084-.269.527.527,0,0,1,.038-.2.4.4,0,0,1,.112-.173.444.444,0,0,1,.189-.075.459.459,0,0,1,.185.075.377.377,0,0,1,.111.173.545.545,0,0,1,.037.2.476.476,0,0,1-.082.269l-.03.048.038.039a1.56,1.56,0,0,0,.379.29,1.775,1.775,0,0,0,.485.171,3.176,3.176,0,0,0,.839.126,3.419,3.419,0,0,0,.438-.028l.045,0,0-.058v-.019a.318.318,0,0,1,.064-.189.2.2,0,0,1,.148-.081h.03a.261.261,0,0,1,.174.271v.03a.25.25,0,0,1-.178.246h-2.3l-.02.343h.095l.012-.222H542.9l-.074.222h.1l0-.007v.007h.1l-.074-.222h.142a.36.36,0,0,0,.26-.352V331.6a.373.373,0,0,0-.252-.387h0l-.044,0a.356.356,0,0,0-.3.358c-.144.012-.269.023-.389.023a3.012,3.012,0,0,1-.818-.128,1.693,1.693,0,0,1-.47-.163,1.312,1.312,0,0,1-.325-.241.6.6,0,0,0,.078-.3.676.676,0,0,0-.047-.249.473.473,0,0,0-.145-.22.531.531,0,0,0-.228-.1H540.4a.55.55,0,0,0-.23.1.464.464,0,0,0-.143.22.66.66,0,0,0-.049.249.624.624,0,0,0,.078.3,1.279,1.279,0,0,1-.325.241,1.7,1.7,0,0,1-.468.163,3.019,3.019,0,0,1-.82.128c-.12,0-.247-.011-.388-.023a.354.354,0,0,0-.305-.358l-.043,0h0a.373.373,0,0,0-.251.387v.043a.362.362,0,0,0,.262.352h.1l-.073.222Zm8.952,0a1.126,1.126,0,0,0,.392-.823c.084-.781-.333-1.16-.682-1.221s-.834.159-.92.909a1.125,1.125,0,0,0,.457,1.133Zm.3-.914a.672.672,0,0,1-.824.63.63.63,0,0,1-.595-.725.7.7,0,0,1,.851-.664.635.635,0,0,1,.568.759m-15.938.766c-.016,0-.029,0-.044,0l-.057,0-.329-.445.137-.141.13-.092.029-.013.078.2a.7.7,0,0,0-.024.179.661.661,0,0,0,.078.313m.333-.6v.335a.522.522,0,0,0-.317-.3l-.063-.165.09-.042.193-.056.23-.019.195.008.139.027-.09.258a.529.529,0,0,0-.284.281v-.325Z" transform="translate(-354.229 -234.725)" fill="#dde5eb"/>
      <path id="Trazado_11" data-name="Trazado 11" d="M525.471,322.245a18.594,18.594,0,0,0-.1,1.976c0,.127,0,.251,0,.377h.184c0-.128,0-.251,0-.375a18.165,18.165,0,0,1,.107-1.978Zm2.264,0s0,0,.008.006.01,0,.015,0Zm.664,0a13.558,13.558,0,0,0-.142,1.976c0,.127,0,.247,0,.373l.239,0a.379.379,0,0,1,.326-.245h7.392a.4.4,0,0,1,.337.246h.3a.4.4,0,0,1,.339-.245h7.391a.384.384,0,0,1,.327.245h.243c0-.128,0-.249,0-.375a13.964,13.964,0,0,0-.14-1.976h-.178c.064.442.109.889.13,1.348,0,.264-.177.507-.385.507H537.2a.477.477,0,0,1-.4-.5v-1.35h-.181v1.35a.475.475,0,0,1-.4.5h-7.392c-.21,0-.386-.243-.386-.507a13.124,13.124,0,0,1,.131-1.35Zm3.082,0,.012.051,0,.011.057.09,0,.036a.352.352,0,0,0,.032.142l0,.006.081.141a.259.259,0,0,1-.022.054h0l-.263.282a.576.576,0,0,0-.156.4v.057l1.444,0v-.059a.581.581,0,0,0-.147-.4h0l-.264-.28a.151.151,0,0,1-.035-.093v-.215a.305.305,0,0,0,.052-.045.309.309,0,0,0,.074-.183h-.092a.165.165,0,0,1-.034.083.077.077,0,0,0-.012.014.071.071,0,0,1-.032.029s-.007,0-.009.006a.225.225,0,0,1-.04.006c-.012,0-.029,0-.048.007h0l-.173.053a.227.227,0,0,0-.142.077l-.019.018a.334.334,0,0,0-.027.041s-.007.01-.012.015l-.034-.06-.009-.013a.227.227,0,0,1-.02-.088l.006-.049a.147.147,0,0,1,0-.024l.019-.04.009-.024v0l.037-.029h0l.026-.017H531.6s-.007.01-.008.017l-.008-.012v0Zm2.452,0v1.28h.835v-1.28h-.092v1.163h-.649v-1.163Zm4.054,0-.434,1.276.081.058.41-.83v.777h4.619v-.681l.343.764.083-.051-.4-1.313h-.1l.025.081.044.147,0,.006.119.393-.119-.267,0,0-.09-.2,0,0-.067-.15h-.154v1.16h-.318v-1.16h-.092v1.16h-.1v-1.16h-.093v1.16h-.325v-1.16h-.1v1.16h-.108v-1.16h-.094v1.16h-.318v-1.16h-.091v1.16h-.1v-1.16h-.094v1.16h-.348v-1.16h-.091v1.16h-.1v-1.16H539.9v1.16h-.317v-1.16h-.09v1.16h-.109v-1.16h-.094v1.16h-.326v-1.16h-.1v1.16h-.1v-1.16h-.094v1.16h-.317v-1.16h-.175l-.045.092-.046.1-.046.092-.17.342.17-.5.041-.122Zm7.991,0-.314.237c-.024.024-.044,0-.05-.012l-.023-.033c-.015,0-.01.036-.007.083.026.208.051.4.065.49s.02.119.034.117l.013-.039c0-.033-.007-.07-.007-.111s.021-.138.19-.279c.128-.1.352-.28.57-.456Zm1.783,0a18.1,18.1,0,0,1,.107,1.976c0,.124,0,.247,0,.373l.186,0c0-.124,0-.249,0-.375a18.7,18.7,0,0,0-.1-1.971ZM526.175,324.6a.1.1,0,0,1-.053-.085c-.006-.033-.008-.052-.01-.08s0-.042-.021-.042-.015.023-.015.057,0,.1.008.15Zm1.463,0c0-.083,0-.186,0-.291,0-.03-.01-.049-.02-.049s-.017.013-.017.042a.884.884,0,0,1-.006.134.1.1,0,0,1-.1.111c-.087.014-.25.023-.451.031l-.362.017-.118.006Zm19.617,0a.024.024,0,0,0,0-.016,1.407,1.407,0,0,1-.024-.251l-.016-1.045c0-.084,0-.186.009-.263a.625.625,0,0,1,.022-.115c0-.016-.013-.023-.036-.029a1.5,1.5,0,0,0-.241-.051c-.022,0-.033,0-.03.023l.024.029a.26.26,0,0,1,.075.043c.045.039.056.1.061.253l.013.391-.846.021a3.866,3.866,0,0,1-.441,0c-.06-.008-.1-.022-.112-.076a.433.433,0,0,1-.011-.092c0-.033-.007-.046-.017-.046s-.021.022-.019.057c0,.106.01.268.01.333s0,.237,0,.408c0,.031.007.052.022.052s.016-.013.016-.042a1.089,1.089,0,0,1,.007-.135c.008-.077.051-.094.11-.1a3.264,3.264,0,0,1,.441-.027l.845-.019v.333c0,.235-.057.308-.112.314l-.02,0c-.035,0-.044.007-.044.029s.007.018.02.022Zm-21.161-.792c.015,0,.021-.016.022-.043a.62.62,0,0,1,.011-.1c.019-.087.051-.1.124-.1s.124.007.435.033l.365.035a3.286,3.286,0,0,1,.438.052c.06.018.1.034.109.086a.459.459,0,0,1,.006.094c0,.029,0,.04.011.041s.021-.016.025-.053c0-.1.007-.267.012-.334s.017-.233.027-.4c0-.04,0-.058-.018-.06s-.017.011-.017.042a1.222,1.222,0,0,1-.019.132c-.01.076-.057.092-.116.092a3.869,3.869,0,0,1-.438-.023l-.171-.016-.015-.019c0-.046.016-.325.027-.391a.141.141,0,0,1,.081-.126.159.159,0,0,1,.064-.012l.031-.017c0-.024-.018-.029-.038-.031a1.288,1.288,0,0,1-.151-.025.6.6,0,0,1-.126-.031l-.02.017.02.034a.169.169,0,0,1,.031.117c0,.036,0,.075-.006.118l-.016.335-.02.021-.515-.046a.025.025,0,0,1-.026-.029l.028-.4c.006-.1.042-.152.074-.169a.15.15,0,0,1,.077-.008c.023,0,.033-.007.035-.022l-.027-.03c-.026-.01-.147-.025-.166-.03a.4.4,0,0,1-.092-.03l-.02.017.012.045c0,.029,0,.059,0,.11s-.033.6-.039.7c0,.075-.017.239-.025.378,0,.039,0,.057.015.063m12.172-.4h-.127v-.841l.127-.258Zm4.307,0h-.128v-1.054l.128.284Zm-10.109-.251a.418.418,0,0,1,.112.246h-1.253a.443.443,0,0,1,.114-.247h0l.266-.287h0a.308.308,0,0,0,.057-.159.2.2,0,0,1,.046-.078.164.164,0,0,1,.115-.069h0l.173-.049h.03v.183a.279.279,0,0,0,.07.183Z" transform="translate(-354.219 -229.459)" fill="#dde5eb"/>
      <path id="Trazado_12" data-name="Trazado 12" d="M527.6,299.424a.528.528,0,0,1-.14.215.1.1,0,0,1-.044.029c-.012,0-.032,0-.067.012l-.017,0a.223.223,0,0,1-.078-.025.347.347,0,0,0-.143-.036h-.02a.426.426,0,0,0-.132.022.392.392,0,0,0-.147.081.324.324,0,0,0-.083.123.4.4,0,0,0-.021.144c0,.034,0,.066,0,.1a.409.409,0,0,0,.07.176.435.435,0,0,0,.106.109.357.357,0,0,0,.111.056.675.675,0,0,0,.1.013h.014a.632.632,0,0,0,.292-.074c.079-.046.193-.093.307-.17a16.908,16.908,0,0,0-1.92,6.275l.187,0a16.452,16.452,0,0,1,2.157-6.628c.043-.075.087-.146.131-.221s.087-.138.131-.2l-.238,0c-.041.064-.081.128-.119.193.012-.027.028-.059.048-.1v0l.039-.091h-.1a.224.224,0,0,0-.011.03c-.065.129-.086.185-.109.218a.76.76,0,0,1-.1.141c-.04.045-.073.083-.107.119a2.012,2.012,0,0,1-.364.215.5.5,0,0,1-.218.054h0a.444.444,0,0,1-.074-.006.142.142,0,0,1-.056-.028.216.216,0,0,1-.06-.06.093.093,0,0,1-.023-.064l0-.054.006-.043.016-.027h0a.238.238,0,0,1,.087-.052.824.824,0,0,1,.1-.011h.01a.185.185,0,0,1,.082.022.316.316,0,0,0,.138.037l.042-.006a.428.428,0,0,0,.091-.016.267.267,0,0,0,.106-.068.763.763,0,0,0,.2-.309c.014-.035.027-.065.038-.1Zm2.687,0,.059.093c.183.3.338.393.481.407a.6.6,0,0,0,.449-.216.832.832,0,0,0,.191-.282h-.126a.5.5,0,0,1-.1.141.333.333,0,0,1-.254.117c-.112,0-.216-.062-.359-.258Zm2.116,0a11.272,11.272,0,0,0-3.68,7.048l.174,0a11.034,11.034,0,0,1,3.592-6.861c.078-.064.157-.129.236-.189Zm1.854,0,0,1.789h-1.412l0,1.084h1.41v4.178h.094v-4.293h-1.411v-.851h1.408l.007-.107h0l0-1.8Zm.744,0v1.907h1.435v.851h-1.435v4.293h.091V302.3h1.437v-1.084H535.1v-1.789Zm1.938,0,0,7.05h.182l0-7.05Zm4.4,0c.08.06.157.126.236.189a11.034,11.034,0,0,1,3.595,6.859l.177,0a11.285,11.285,0,0,0-3.681-7.053Zm1.133,0c.063.064.122.119.136.135.05.054.113.133.164.185l.039.007-.011-.04-.026-.024c-.048-.054-.047-.093-.021-.129a.354.354,0,0,1,.1-.1l.05-.036Zm.839,0,.2.215.008.033-.158.559c-.008.035-.029.043-.043.033l-.034,0c-.01.013.009.033.036.068.125.138.239.261.3.321s.073.076.085.057l-.008-.036a.4.4,0,0,1-.064-.081c-.025-.043-.053-.121.009-.366.043-.185.122-.495.2-.8l-.253,0-.023.077-.015,0-.076-.08Zm2.359,0c.022.037.044.072.067.107s.057.089.085.136.055.088.08.133a16.435,16.435,0,0,1,2.186,6.675h.188a16.9,16.9,0,0,0-1.9-6.246,1.215,1.215,0,0,0,.209.122.915.915,0,0,0,.362.089h.012a.581.581,0,0,0,.1-.013.309.309,0,0,0,.11-.056.381.381,0,0,0,.107-.109.346.346,0,0,0,.065-.176.454.454,0,0,0,.01-.1.486.486,0,0,0-.023-.144.318.318,0,0,0-.085-.123.357.357,0,0,0-.146-.081.413.413,0,0,0-.132-.022h-.02a.36.36,0,0,0-.143.036.188.188,0,0,1-.078.025l-.018,0c-.036-.007-.058-.009-.07-.012l-.037-.025a.617.617,0,0,1-.084-.092c-.006-.008-.02-.043-.057-.125h-.21c.013.033.026.066.041.1.043.089.052.122.08.173a.953.953,0,0,0,.112.124.213.213,0,0,0,.113.072.473.473,0,0,0,.091.016l.039.006a.327.327,0,0,0,.14-.037.179.179,0,0,1,.08-.022h.008a.885.885,0,0,1,.1.011.241.241,0,0,1,.083.051l.02.027.006.043,0,.054a.218.218,0,0,1-.022.064.334.334,0,0,1-.065.06.123.123,0,0,1-.053.028.451.451,0,0,1-.076.006.705.705,0,0,1-.3-.075.992.992,0,0,1-.295-.206c-.03-.031-.061-.068-.1-.107a.165.165,0,0,0-.017-.02,1.642,1.642,0,0,1-.1-.151c0-.007-.008-.012-.013-.018-.016-.035-.041-.087-.081-.168l0,0-.015-.029h-.108c.025.056.042.091.042.091l0,0c0,.007,0,.013.008.016-.024-.036-.045-.072-.07-.109Zm-17.587,7.05a.065.065,0,0,0,.013-.039c.022-.1.043-.266.056-.325s.047-.231.078-.4c.006-.03,0-.054-.009-.057s-.021.006-.026.039a1.056,1.056,0,0,1-.031.129.089.089,0,0,1-.115.072c-.088-.016-.248-.063-.441-.12l-.356-.106c-.3-.091-.361-.105-.425-.127s-.1-.058-.1-.13a.361.361,0,0,1,.009-.078l-.014-.049c-.009,0-.019.016-.027.051-.015.1-.035.247-.046.315s-.05.235-.067.332c-.009.043-.009.06,0,.068l.027-.036a.384.384,0,0,1,.024-.091c.021-.054.058-.07.128-.054s.124.031.431.121l.353.1a4.159,4.159,0,0,1,.436.141c.057.027.088.049.087.1a.484.484,0,0,1-.009.1c0,.019,0,.033,0,.036Zm3.824,0-.038-.136,0-.052,0-.051a.229.229,0,0,1,.073-.134.315.315,0,0,1,.052-.046.345.345,0,0,1,.048-.022s0,0,.006,0h0l.036-.014.117-.048.113-.045a.254.254,0,0,0,.13-.082.086.086,0,0,0,.012-.016.3.3,0,0,0,.048-.066.379.379,0,0,0,.029-.068v0l.008-.029.01.012.014.017.037.08.022.109v.107a.33.33,0,0,1-.065.123l-.009.011,0,0,0,0-.039.034-.046.041h0c-.007.006-.017.01-.027.017a.37.37,0,0,1-.188.059h-.008l-.145.064-.032.016h0a.053.053,0,0,1-.013,0,.49.49,0,0,0-.047.028.281.281,0,0,0-.054.054l-.007.008a.287.287,0,0,1-.016.028l.155,0,.014-.006.1-.048.1-.034.11-.023.006-.006.058-.031.03-.014h0l.014-.013.009-.007a.044.044,0,0,0,.01-.008l.024.041h0v0a.2.2,0,0,1,.035.123h0c0,.008,0,.017,0,.02l.092,0v-.024a.337.337,0,0,0-.055-.2h0l-.022-.034a.169.169,0,0,0,.026-.029.526.526,0,0,0,.089-.169l0-.016v-.146l-.025-.126,0-.011-.049-.1,0-.008-.076-.1a.367.367,0,0,1,.06-.165,1.522,1.522,0,0,1,.282-.3c.111-.105.194-.171.268-.247a.941.941,0,0,0,.191-.3,1.515,1.515,0,0,0,.117-.739V303.7l-2.409-.01v.123a1.483,1.483,0,0,0,.11.687.9.9,0,0,0,.19.305c.075.075.157.14.267.245a2.019,2.019,0,0,1,.22.217l-.05-.017-.02-.006c-.04-.017-.156-.066-.406-.188-.132-.1-.238-.174-.321-.251a.782.782,0,0,1-.2-.313,1.067,1.067,0,0,1-.065-.413,1.885,1.885,0,0,1,.031-.286c.013-.084.029-.154.036-.2.032-.071.045-.12.058-.148a.328.328,0,0,1,.1-.128.855.855,0,0,1,.392-.188.407.407,0,0,1,.078-.007c.053,0,.109.006.15.006l.088.031.006,0,0,0a.836.836,0,0,0,.419.245.458.458,0,0,0,.05,0,.785.785,0,0,0,.218-.024.771.771,0,0,0,.318-.177c.007-.006.011-.013.019-.021h.042l.011,0a.405.405,0,0,0,.122-.021.338.338,0,0,0,.1-.091l.043-.049-.061.007a.757.757,0,0,1-.077.006h-.008a.526.526,0,0,1-.155-.04h-.007a.289.289,0,0,1-.01-.03l-.006-.013-.006-.007c-.063-.083-.087-.124-.11-.158a.75.75,0,0,0-.094-.113v0a.5.5,0,0,0-.1-.07c-.046-.024-.1-.048-.138-.066a.4.4,0,0,0-.139-.028c-.117,0-.214.053-.266.049-.2,0-.39-.074-.574-.074a.432.432,0,0,0-.179.034,1.778,1.778,0,0,0-.337.182h0l0,.007a1.334,1.334,0,0,0-.225.27,1.912,1.912,0,0,0-.163.315l0,.007v0a2.613,2.613,0,0,0-.1.381,2.132,2.132,0,0,0-.03.369c0,.045,0,.087,0,.128a1.835,1.835,0,0,0,.068.4,1.648,1.648,0,0,0,.918,1.08,2.394,2.394,0,0,0,.675.279.33.33,0,0,0-.077.068.348.348,0,0,0-.1.188.407.407,0,0,0-.009.083.343.343,0,0,0,.009.081h0l.027.106Zm6.5,0,.007-.011.045-.139,1.028-3.02h0v0l.017-.057h0l.02-.058h0l.125-.366.02-.058.022-.063.441-1.3.014-.052a1.026,1.026,0,0,0,.243.293.519.519,0,0,0,.265.1l.071,0c.044,0,.085,0,.118,0l0,0-.05.1-.077.15v0l-.344.7-.029.063-.03.058-.18.366h0l-.026.058h0l-.03.057v0l-1.568,3.169h.174v-.128L539,305.7v.772h.094V305.6h-.042l.492-.992h2.342l.409.911h-.029v.957h.093v-.816l.318.712v.1h.156l-1.421-3.169v0l-.026-.057h0l-.025-.058h0l-.163-.366-.026-.058-.028-.063-.311-.693,0,0,.084-.161.067-.128,0,0a.907.907,0,0,0,.089-.042.576.576,0,0,0,.18-.157.04.04,0,0,1,.006-.007,1.577,1.577,0,0,0,.109-.181v0l.417,1.376.019.063.017.058.112.366h0l.018.058h0l.016.057v0l.934,3.088,0,.011.021.07h.1l-.026-.09,0-1.017a.758.758,0,0,0,.1.007l.036,0c.389,0,.739-.434.8-.972.007-.068.009-.132.009-.2a1.087,1.087,0,0,0-.266-.752.649.649,0,0,0-.53-.272h-.181l.294-.486h-1.379l-.458-1.519a1.122,1.122,0,0,0,.05-.336.74.74,0,1,0-1.437,0,1.11,1.11,0,0,0,.064.373l-.043.139L539.6,302.7h-1.652l.282.488a.659.659,0,0,0-.5.27,1.067,1.067,0,0,0-.266.75v0a1.278,1.278,0,0,0,.011.2c.055.537.407.969.793.972l.034,0h.011c.018,0,.04,0,.061,0v.927l-.06.169Zm.874,0v-.847a.189.189,0,0,1,.164-.179l.024,0a.177.177,0,0,1,.14.159v.864h.094v-.887a.281.281,0,0,0-.222-.251h-.034a.291.291,0,0,0-.258.284v.856Zm.62,0v-.839a.185.185,0,0,1,.162-.187l.02,0a.169.169,0,0,1,.134.157v.867h.1v-.882l0,0a.273.273,0,0,0-.217-.251h-.03a.28.28,0,0,0-.252.284v.856Zm.6,0v-.842a.424.424,0,0,1,.072-.15.239.239,0,0,1,.1-.053.268.268,0,0,1,.1.053.481.481,0,0,1,.071.152v.84h.094v-.86l0-.014a.557.557,0,0,0-.1-.206.379.379,0,0,0-.152-.083l-.01.058-.01-.058a.331.331,0,0,0-.151.083.493.493,0,0,0-.1.206l0,.014v.86Zm.63,0v-.86c.019-.1.062-.147.136-.163l.022,0a.185.185,0,0,1,.161.179v.847h.094v-.856a.284.284,0,0,0-.254-.284h-.033a.275.275,0,0,0-.215.251v.887Zm.614,0v-.869a.174.174,0,0,1,.137-.154l.023,0a.185.185,0,0,1,.165.187v.839h.093v-.856a.286.286,0,0,0-.257-.284h-.033a.284.284,0,0,0-.222.251v.887Zm5.027,0c.272-.215.535-.424.592-.469s.061-.058.055-.081-.026-.034-.091-.054l-1.366-.363c-.111-.03-.184-.064-.214-.18l-.015-.081-.022-.027c-.015,0-.017.022-.012.051.017.136.043.279.049.31.011.078.018.2.029.274.006.029.011.042.026.039s.017-.01.012-.039l-.007-.041c-.009-.08.012-.111.05-.118a.318.318,0,0,1,.129.01l.31.076.02.019.079.578-.01.03-.088.066ZM527.509,305a.635.635,0,0,0,.66-.008,1.3,1.3,0,0,0,.473-.73,1.752,1.752,0,0,0,.1-.465.1.1,0,0,0-.035-.093,2.071,2.071,0,0,0-.237-.188l-.037.011c0,.018,0,.028.03.052a.421.421,0,0,1,.1.147.7.7,0,0,1-.037.5.644.644,0,0,1-.925.418.794.794,0,0,1-.423-.478.9.9,0,0,1,.026-.525.785.785,0,0,1,.276-.433.245.245,0,0,1,.205-.007c.029.018.044.018.051,0s-.007-.034-.033-.053-.146-.075-.207-.113-.083-.058-.1-.066l-.035.024c-.029.071-.071.141-.111.231a3.092,3.092,0,0,0-.131.342,1.437,1.437,0,0,0-.04.876.9.9,0,0,0,.434.558m.059-2.618.032-.022c.015-.025.029-.056.045-.077.031-.042.074-.042.136,0s.108.074.381.276l.314.229a4.619,4.619,0,0,1,.385.3c.047.049.074.083.061.13a.585.585,0,0,1-.033.089c-.011.025-.01.041,0,.046s.025,0,.039-.031c.04-.094.1-.241.124-.291s.1-.2.166-.354l0-.054-.029.024a.864.864,0,0,1-.06.11c-.039.065-.079.055-.131.028-.08-.047-.222-.148-.394-.279l-.317-.232c-.268-.2-.32-.24-.376-.285a.142.142,0,0,1-.064-.16.772.772,0,0,1,.027-.072v-.049c-.013,0-.024.008-.036.04-.041.086-.1.224-.123.282s-.1.208-.14.293c-.015.034-.021.057-.009.062m1.612-.194a.356.356,0,0,1,.047.32l-.032.074,0,.033c.015.014.024.007.042-.022.062-.11.124-.232.138-.257.038-.063.095-.153.131-.222l0-.049-.03.019-.02.03c-.038.069-.07.069-.1.041a.663.663,0,0,1-.084-.127l-.173-.34v-.029l.271-.478.021-.01.452.157a.049.049,0,0,1,.031.058l-.006.041c.013.013.028-.014.05-.051.1-.168.191-.322.234-.4s.052-.1.039-.115l-.03.017a.7.7,0,0,1-.058.084c-.033.035-.092.076-.289.018-.331-.1-1.207-.392-1.328-.425-.05-.015-.072-.015-.082,0s0,.051.032.121Zm-.442-1.254.522.188,0,.023-.225.391-.015,0-.3-.577-.007-.024Zm15.063-.043a.357.357,0,0,1-.052-.07l-.035-.021c-.011.014-.008.034.01.062.052.077.137.2.167.252.066.1.164.307.258.454a.91.91,0,0,0,.623.491.69.69,0,0,0,.59-.239,1.031,1.031,0,0,0,.283-.619,1.593,1.593,0,0,0-.337-1.011c-.078-.123-.164-.246-.2-.313s-.115-.19-.182-.3c-.022-.035-.032-.043-.044-.03l.011.049a.488.488,0,0,1,.042.082.148.148,0,0,1-.035.182c-.05.057-.093.106-.337.358l-.282.29c-.15.152-.275.285-.353.345-.048.04-.09.064-.123.033m.313.258a.563.563,0,0,1,.109-.151c.028-.031.149-.161.32-.339l.2-.206c.128-.132.269-.276.325-.33l.046-.007a.555.555,0,0,1,.1.12,1.208,1.208,0,0,1,.207.747.987.987,0,0,1-.275.612.583.583,0,0,1-.51.241.658.658,0,0,1-.414-.354.48.48,0,0,1-.106-.333m1.294,2.527a1.69,1.69,0,0,0,.058.947,1.714,1.714,0,0,0,.182.418c.027.033.04.04.077.033a1.4,1.4,0,0,0,.271-.08l.024-.035c-.008-.022-.018-.022-.049-.012a.268.268,0,0,1-.155-.018c-.118-.052-.179-.17-.248-.389a.973.973,0,0,1,.437-1.12.553.553,0,0,1,.569-.034.658.658,0,0,1,.264.4.985.985,0,0,1,.038.559.35.35,0,0,1-.145.186c-.029.013-.042.028-.035.046s.023.021.052.01.147-.074.208-.1.1-.033.11-.04.019-.025.013-.053c-.017-.074-.026-.159-.044-.257-.026-.121-.045-.214-.092-.364a1.128,1.128,0,0,0-.449-.669.621.621,0,0,0-.615-.013.9.9,0,0,0-.47.591m1.044,2.143.528.123.021.011-.016.017-.468.345-.014-.01-.067-.475Zm-5.7-4.3a.7.7,0,1,0-.532-.679.62.62,0,0,0,.532.679m0-1.239a.578.578,0,1,1-.439.56.512.512,0,0,1,.439-.56m.336,2.536.163.366h-1l.182-.366Zm-.6-.121.287-.578.259.578Zm.817.606.53,1.186H539.6l.587-1.188Zm1.839,0a.568.568,0,0,1,.47.239.958.958,0,0,1,.238.665c0,.056,0,.118-.009.179-.049.476-.368.862-.693.871h-.008l-.034,0a.294.294,0,0,0-.044,0,.687.687,0,0,1-.573-.7v-.041a.6.6,0,0,1,.09-.343.429.429,0,0,1,.275-.192.2.2,0,0,1,.063-.012.3.3,0,0,1,.282.287v.031a.318.318,0,0,1-.153.3l.039.107a.442.442,0,0,0,.208-.4l0-.04a.4.4,0,0,0-.373-.395c-.028,0-.056,0-.083.006a.591.591,0,0,0-.326.235.728.728,0,0,0-.106.338l-.34-1.118Zm-.245,2.023v.74l-.282-.934a.686.686,0,0,0,.282.194m.173-2.508-.222.366h-.823l-.111-.366Zm-2.319-2.772a.726.726,0,0,1,.625.8.958.958,0,0,1-.087.409c-.025.043-.056.1-.1.164a.724.724,0,0,1-.13.124.149.149,0,0,0-.032.019.523.523,0,0,1-.063.031l-.012.007-.017,0-.014,0a.686.686,0,0,1-.189.024.619.619,0,0,1-.1-.011.781.781,0,0,1-.5-.776.729.729,0,0,1,.627-.8m-2.289,5.986v-.692a.692.692,0,0,0,.3-.181Zm-.335-3.214h1.427l-.125.366h-1.09Zm-.4.8c.017-.027.037-.048.057-.074h0a.58.58,0,0,1,.471-.24h1.133l-.388,1.137a.735.735,0,0,0-.111-.357.581.581,0,0,0-.326-.235c-.028,0-.054-.006-.083-.006a.4.4,0,0,0-.373.395v.04a.44.44,0,0,0,.209.4l.037-.107a.32.32,0,0,1-.153-.3v-.031a.3.3,0,0,1,.281-.287.206.206,0,0,1,.065.012.43.43,0,0,1,.273.192.6.6,0,0,1,.093.343l0,.041a.684.684,0,0,1-.593.707H538.3l-.028,0c-.331,0-.652-.393-.7-.871a1.686,1.686,0,0,1-.01-.181.958.958,0,0,1,.178-.589m-5.427-.637a.071.071,0,0,0,.075-.075.073.073,0,0,0-.075-.072.075.075,0,0,0-.074.072.073.073,0,0,0,.074.075m-.99,2.577a1.535,1.535,0,0,1-.863-1.008,1.48,1.48,0,0,1-.061-.375c0-.035,0-.076,0-.118a2.067,2.067,0,0,1,.025-.343,3.234,3.234,0,0,1,.1-.364,1.75,1.75,0,0,1,.15-.293,1.53,1.53,0,0,1,.206-.25,1.442,1.442,0,0,1,.316-.171.358.358,0,0,1,.155-.027c.164,0,.36.071.574.075a2.018,2.018,0,0,1,.266-.048.373.373,0,0,1,.112.015c.039.016.083.042.125.064s.076.049.083.052a.843.843,0,0,1,.082.105c.018.029.046.069.1.14a.078.078,0,0,1,.008.014l.015.074,0,.014a.059.059,0,0,1-.014.008.6.6,0,0,1-.27.146.692.692,0,0,1-.2.025l-.027,0h-.011c-.094-.018-.156-.036-.38-.227l-.032-.018a.486.486,0,0,0-.1-.031l0,0h-.01c-.031,0-.09-.007-.155-.007a.448.448,0,0,0-.1.007v0a.9.9,0,0,0-.429.2.479.479,0,0,0-.125.17,1.03,1.03,0,0,1-.058.145l-.006.013,0,.013c0,.028-.02.112-.036.209a1.728,1.728,0,0,0-.033.31,1.188,1.188,0,0,0,.074.46.863.863,0,0,0,.224.358,3.673,3.673,0,0,0,.337.262v0h0a4.376,4.376,0,0,0,.439.2l.17.053,0,0,.025.133c0,.013,0,.028.007.043v.24a2.345,2.345,0,0,1-.68-.279m-.146-1.754,2.221.013a1.286,1.286,0,0,1-.1.624.9.9,0,0,1-.17.269c-.065.068-.147.134-.263.24a1.737,1.737,0,0,0-.3.32.686.686,0,0,0-.093.305v.029l-.009.042a.265.265,0,0,1-.061.1h0a.139.139,0,0,1-.095.057v0l-.119.042-.084.037h0c0-.081,0-.183,0-.31v-.008c0-.021-.007-.043-.009-.065a.634.634,0,0,0-.022-.1.418.418,0,0,0-.035-.091.3.3,0,0,0-.026-.045,1.7,1.7,0,0,0-.3-.32c-.115-.106-.2-.173-.264-.24a.8.8,0,0,1-.167-.269,1.31,1.31,0,0,1-.1-.631Z" transform="translate(-354.547 -213.687)" fill="#dde5eb"/>
      <path id="Trazado_13" data-name="Trazado 13" d="M532.247,291.807c.008.06.015.124.024.183a.579.579,0,0,0-.21.235.733.733,0,0,0-.06.3.985.985,0,0,0,.025.215l.014.029.067.118.015.022a.445.445,0,0,0,.27.153.475.475,0,0,0,.1.013h.028c-.016.113-.027.229-.05.36-.028.147-.041.267-.057.37a1.926,1.926,0,0,1-.1.346s0,.011-.006.013h.2a1.624,1.624,0,0,0,.083-.309c.023-.118.033-.232.061-.373.01-.066.02-.129.026-.19.038-.179.066-.344.093-.457a.243.243,0,0,1,.057-.136.1.1,0,0,1,.035-.023.27.27,0,0,1,.124-.027h.066a.494.494,0,0,1,.061.014h0a.2.2,0,0,1,.1.08.355.355,0,0,1,.06.126l0,.049a.2.2,0,0,1-.059.152.108.108,0,0,1-.069.033.174.174,0,0,1-.065-.023l-.057-.04-.009.087a2.339,2.339,0,0,1-.039.3,3.052,3.052,0,0,1-.156.5c-.043.106-.08.193-.1.237h.1a3.636,3.636,0,0,0,.241-.71,2.009,2.009,0,0,0,.037-.241.177.177,0,0,0,.044.006.193.193,0,0,0,.123-.048.338.338,0,0,0,.095-.251l0-.076a.455.455,0,0,0-.057-.141l.174.027.009,0,.177-.042a.461.461,0,0,0,.261-.167.663.663,0,0,0,.142-.279.887.887,0,0,0,.042-.279c0-.051,0-.1-.007-.159h-.091c0,.06.007.112.007.158a.789.789,0,0,1-.035.239.568.568,0,0,1-.118.232.354.354,0,0,1-.219.138l-.162.037-.213-.037h-.011a.554.554,0,0,0-.172-.035.123.123,0,0,0-.029,0,.375.375,0,0,0-.086-.011.255.255,0,0,0-.092.016.309.309,0,0,0-.107.052s0,.006,0,.006a.369.369,0,0,0-.058.057.46.46,0,0,1-.08.083.552.552,0,0,1-.157.1.168.168,0,0,1-.065-.011.255.255,0,0,1-.173-.1l-.047-.078a.734.734,0,0,1-.014-.127.361.361,0,0,1,.22-.354.047.047,0,0,0,.026-.017.811.811,0,0,1,.183-.022h.046a.823.823,0,0,1,.2.024l.2.039a1.628,1.628,0,0,0,.255.052c.046,0,.073.01.122.013h.016a.232.232,0,0,0,.206-.141.4.4,0,0,0,.04-.174l0-.066a.343.343,0,0,0-.008-.069h-.1a.407.407,0,0,1,.012.077l0,.058a.226.226,0,0,1-.025.11.145.145,0,0,1-.129.091h-.01l-.119-.013a1.719,1.719,0,0,1-.245-.053h0l-.2-.036a.8.8,0,0,0-.22-.027h-.05a.675.675,0,0,0-.139.013.224.224,0,0,1,.013.036l-.021.013-.062.037.062-.037.021-.013a.225.225,0,0,0-.013-.036c-.007-.018-.011-.035-.019-.056-.016-.049-.034-.109-.05-.163Zm.159,0c.014.054.032.113.049.163-.007-.049-.016-.107-.021-.16Zm2.146,0c.05.01.1.017.148.028a13.438,13.438,0,0,0-1.83,2.328h.238a.042.042,0,0,1,.01-.018q.343-.538.73-1.028a12.774,12.774,0,0,1,1.179-1.308Zm1.6,0a.2.2,0,0,0,.008.025l.54,1.4c.078.208.1.278.059.327a.367.367,0,0,1-.078.068l-.022.036c.009.023.025.014.049,0,.1-.064.18-.125.2-.135.037-.023.111-.065.231-.141.026-.017.041-.034.033-.054s-.018-.007-.039,0a.347.347,0,0,1-.1.043c-.042.008-.092-.035-.168-.218l-.416-.973.008,0c.049.023.372.181.674.305s.645.27.819.339a.12.12,0,0,0,.084.011c.016-.01.013-.036-.006-.093l-.364-.945h-.165l.257.611-.009.006c-.047-.018-.431-.194-.62-.273-.308-.129-.636-.275-.786-.344Zm2.339,0c.063.241.111.431.13.541.009.076.009.121-.026.148a.26.26,0,0,1-.067.037c-.024.013-.029.022-.026.033s.02.02.045.012c.078-.031.2-.089.245-.113s.179-.064.307-.117c.023-.01.036-.024.034-.04s-.016-.017-.038-.008-.076.024-.1.033c-.061.016-.088-.024-.11-.089-.03-.089-.07-.245-.12-.436Zm1.31,0,.084.167c.056.115.072.148.1.142s.036-.049.066-.212c.008-.025.012-.059.021-.1Zm1.15,0a.063.063,0,0,1-.041.043.5.5,0,0,1-.072.006c-.025.006-.033.013-.033.027s.012.025.04.025c.084,0,.215-.012.263-.017.12,0,.257.012.571.006.076,0,.1,0,.109-.07a.206.206,0,0,1,0-.021Zm1.3,0a.029.029,0,0,1-.02.01.538.538,0,0,1-.077,0c-.025-.007-.033,0-.034.013s.012.027.038.033c.08.013.21.025.251.034s.181.033.3.053c.026,0,.042,0,.044-.021l-.023-.022-.1-.028a.089.089,0,0,1-.061-.074Zm.877,0a.72.72,0,0,0,.127.177.353.353,0,0,0,.216.083l.193.031.033-.008.014.022a.688.688,0,0,0,.278.167.467.467,0,0,0,.338,0,.493.493,0,0,0,.28-.377.678.678,0,0,0,.015-.1h-.241a.535.535,0,0,1-.01.158.25.25,0,0,1-.33.2.354.354,0,0,1-.23-.357v0h-.074c-.013.06-.032.134-.046.205l-.006.047,0,0a.191.191,0,0,1-.058-.017c-.03-.013-.112-.045-.213-.215a.1.1,0,0,0-.01-.017Zm2.09,0-.036.121c-.072.239-.13.434-.172.535-.025.07-.05.1-.094.1a.557.557,0,0,1-.07-.025c-.024-.011-.034-.011-.039,0s.007.028.03.042c.078.036.2.091.248.111s.172.093.3.156c.017.008.036.008.042-.01s-.006-.023-.026-.034a.494.494,0,0,1-.093-.058c-.056-.039-.056-.089-.042-.159.024-.109.081-.3.153-.539l.071-.24Zm1.253,0-.114.234-.193.392c-.1.2-.189.381-.244.468-.037.06-.069.1-.108.085a.233.233,0,0,1-.07-.042c-.022-.016-.03-.016-.036,0s0,.033.024.051c.07.057.184.138.226.169.086.07.231.224.357.327a.787.787,0,0,0,.717.2.875.875,0,0,0,.5-.473,1.1,1.1,0,0,0-.339-1.408h-.177a1.023,1.023,0,0,1,.353.594,1.083,1.083,0,0,1-.1.692c-.114.23-.246.4-.419.444a.6.6,0,0,1-.483-.162.4.4,0,0,1-.183-.272.6.6,0,0,1,.061-.188c.019-.042.1-.217.219-.453l.139-.284c.063-.132.133-.275.181-.37Zm1.979,0a12.8,12.8,0,0,1,1.179,1.309c.261.333.51.682.742,1.048h.236a13.458,13.458,0,0,0-1.83-2.33c.049-.01.095-.016.142-.025Zm.9,0c0,.056-.009.107-.009.158a.834.834,0,0,0,.043.279h0a.654.654,0,0,0,.144.279.438.438,0,0,0,.26.167h0l.169.039.008,0,.181-.03a.372.372,0,0,0-.057.144v0a.494.494,0,0,0-.008.076.335.335,0,0,0,.1.251.179.179,0,0,0,.121.048.207.207,0,0,0,.044-.006,2.214,2.214,0,0,0,.034.241,3.975,3.975,0,0,0,.239.711h.108c-.021-.042-.059-.129-.1-.235a3.254,3.254,0,0,1-.159-.5,2.858,2.858,0,0,1-.038-.3l-.007-.087-.06.04a.145.145,0,0,1-.061.023.11.11,0,0,1-.071-.033.192.192,0,0,1-.056-.152l0-.049a.379.379,0,0,1,.061-.125.2.2,0,0,1,.1-.08.5.5,0,0,1,.064-.015h.065a.272.272,0,0,1,.126.027.4.4,0,0,1,.036.023.257.257,0,0,1,.044.1.175.175,0,0,0,0,.07c.033.139.043.372.1.629a4.207,4.207,0,0,0,.167.67h.211a.027.027,0,0,0-.009-.014,3.445,3.445,0,0,1-.193-.716c-.028-.141-.044-.279-.059-.407a.363.363,0,0,0,.109.018h.011a.409.409,0,0,0,.314-.159l.016-.019.069-.129,0-.008a.59.59,0,0,0,.06-.251.627.627,0,0,0-.05-.239.438.438,0,0,0-.234-.256h0l-.018-.008c.014-.053.026-.113.038-.165h-.045a1.483,1.483,0,0,1-.039.147.725.725,0,0,1-.032.1c0,.006,0,.011,0,.014s0,0,0,0-.012.024-.017.037h0c.006-.013.011-.027.017-.037s0,0,0,0a.046.046,0,0,0,0-.014.725.725,0,0,0,.032-.1c.014-.046.027-.1.039-.146h-.147c-.014.066-.035.139-.052.2a.031.031,0,0,0,0,.014.8.8,0,0,0-.112-.01H550.8a.8.8,0,0,0-.22.026l-.2.036h0a1.836,1.836,0,0,1-.244.053l-.119.013h-.01a.142.142,0,0,1-.13-.091.209.209,0,0,1-.025-.11l0-.058a.419.419,0,0,1,.01-.077h-.1c0,.023-.006.046-.008.069l0,.066a.354.354,0,0,0,.041.174.231.231,0,0,0,.205.141h.015c.046,0,.076-.008.123-.013a1.745,1.745,0,0,0,.256-.052h0l.2-.037h0a.826.826,0,0,1,.2-.024h.048a.728.728,0,0,1,.154.017.191.191,0,0,0,.021.014l.107.042h0a.225.225,0,0,1,.136.141.352.352,0,0,1,.027.132.248.248,0,0,1-.035.129h0l-.058.109a.231.231,0,0,1-.19.094h-.008a.309.309,0,0,1-.189-.084.029.029,0,0,0-.018-.007.769.769,0,0,1-.056-.064.721.721,0,0,0-.058-.057s0,0,0-.006a.3.3,0,0,0-.11-.052.226.226,0,0,0-.088-.016.386.386,0,0,0-.089.011.1.1,0,0,0-.027,0,.581.581,0,0,0-.174.035h-.008l-.215.037-.163-.037a.339.339,0,0,1-.216-.138.54.54,0,0,1-.121-.232.757.757,0,0,1-.034-.239c0-.046,0-.1.007-.157Zm-14.023,2.356c-.026-.035-.054-.078-.082-.124l-.177-.293c-.194-.313-.23-.37-.267-.443s-.049-.121-.012-.179l.044-.051.012-.046c-.007-.017-.019-.007-.045.019-.057.057-.158.168-.2.2s-.156.146-.242.231c-.024.024-.033.037-.024.057l.036-.01a.639.639,0,0,1,.071-.058c.061-.036.093-.019.141.048s.079.124.276.438l.127.208Zm.84,0a.858.858,0,0,0,.058-.2,1.187,1.187,0,0,0-.229-.777l-.137-.226c-.195-.314-.231-.374-.269-.444s-.049-.118-.008-.174l.041-.058.016-.047c-.007-.013-.021,0-.043.016-.063.065-.163.175-.182.192,0,0-.108.1-.192.18-.021.028-.032.04-.021.053l.039-.01.061-.051c.06-.04.1-.017.142.048s.079.123.273.438l.159.259a1.045,1.045,0,0,1,.221.608.6.6,0,0,1-.054.193Zm1.257,0a7.023,7.023,0,0,1,3.818-1.521.451.451,0,0,1,.4.485v1.035h.186v-1.035a.453.453,0,0,1,.4-.485,7.009,7.009,0,0,1,3.816,1.521h.327a6.965,6.965,0,0,0-9.263,0Zm1.627,0v-.035h.648v.035h.093v-.153h-.836v.153Zm8.553,0,.226-.162h.026l.153.163h.161l-.217-.233,0-.021.473-.34.022-.006,0,.024-.163.576h.253c.1-.4.2-.78.221-.864.015-.063.017-.092,0-.109s-.038,0-.1.035l-1.232.844c-.1.063-.172.105-.252.035l-.05-.046-.03-.006c-.012.017,0,.029.015.052a.544.544,0,0,0,.056.058Z" transform="translate(-359.248 -208.421)" fill="#dde5eb"/>
      <path id="Trazado_14" data-name="Trazado 14" d="M533.753,284.212a1.737,1.737,0,0,0-.035.216c0,.049-.006.1-.006.134a2,2,0,0,0,.052.413,1.134,1.134,0,0,0-.768.713,1.257,1.257,0,0,0-.114.517,1.8,1.8,0,0,0,.011.193c0,.041.011.1.019.159h.16a1.354,1.354,0,0,1-.041-.179c-.006-.066-.01-.122-.01-.174a1.046,1.046,0,0,1,.1-.431.965.965,0,0,1,.765-.64l.055-.008-.014-.066a2.348,2.348,0,0,1-.072-.508c0-.034,0-.065,0-.1.007-.08.02-.164.034-.241Zm.141,0a1.719,1.719,0,0,0-.037.238c0,.036,0,.068,0,.1a2.3,2.3,0,0,0,.073.508l.013.066-.055.008a.963.963,0,0,0-.763.64,1.035,1.035,0,0,0-.1.431c0,.052.007.107.01.174a1.535,1.535,0,0,0,.041.179h.028c-.012-.074-.019-.144-.025-.188-.007-.065-.009-.121-.009-.164a.918.918,0,0,1,.094-.4.9.9,0,0,1,.728-.612.1.1,0,0,0,.067-.053.156.156,0,0,0,.013-.1,2.445,2.445,0,0,1-.075-.482c0-.035.006-.069.007-.107a1.536,1.536,0,0,1,.045-.243Zm.686,0a.917.917,0,0,0-.13.495,1.753,1.753,0,0,0,.344,1,1.02,1.02,0,0,0,.744.472.542.542,0,0,0,.4-.174.966.966,0,0,0,.3-.7,1.573,1.573,0,0,0-.147-.619l.335-.46.081.118.051.077.043.063q.02.024.037.047l0,0a1.29,1.29,0,0,0,.086.127.113.113,0,0,0,.087.057.093.093,0,0,0,.06-.025l.05-.053h0a.388.388,0,0,1,.046-.049,2.627,2.627,0,0,1,.431-.373h-.182a3.023,3.023,0,0,0-.359.332v0l-.039.043-.007,0,0,0a.846.846,0,0,1-.1-.141.461.461,0,0,0-.034-.047c.057-.062.115-.128.181-.191H536.7c-.034.034-.067.07-.1.1,0,0,0,0,0,0l-.074-.107H536.3l-.335.457.017.037a1.469,1.469,0,0,1,.15.6.818.818,0,0,1-.258.6.469.469,0,0,1-.339.153.956.956,0,0,1-.679-.443,1.637,1.637,0,0,1-.317-.914.74.74,0,0,1,.164-.5Zm.987,0,.059.047.032.03.058-.077Zm3.227,0a10.763,10.763,0,0,0-3.357,2.3l0-.03a1.6,1.6,0,0,1-.324-.081,1.167,1.167,0,0,1-.409-.232l-.111-.092.042.158a1.436,1.436,0,0,1,.047.3.182.182,0,0,0,0,.024h.091a.168.168,0,0,1,0-.037,1.411,1.411,0,0,0-.019-.17,1.257,1.257,0,0,0,.333.17,1.074,1.074,0,0,0,.127.037h.475a10.412,10.412,0,0,1,3.723-2.345Zm6.6,0a10.389,10.389,0,0,1,3.723,2.346h.469a1.1,1.1,0,0,0,.123-.037,1.265,1.265,0,0,0,.334-.17.985.985,0,0,0-.021.17c0,.013,0,.024,0,.036h.092c0-.006,0-.017,0-.024a1.376,1.376,0,0,1,.049-.3l.04-.158-.111.092a1.154,1.154,0,0,1-.408.232,1.571,1.571,0,0,1-.325.081l0,.017c-.065-.066-.132-.132-.2-.192l.038.007.042.023.017.012.033-.068.009-.019-.038-.054,0-.008-.049-.023-.017-.031c-.011-.031-.019-.054-.032-.091s-.026-.051-.036-.074l.191-.16.01,0,.025.006a.041.041,0,0,0,.023-.008.857.857,0,0,0-.012.1l.009.053v.008c0,.015,0,.058.009.1l.017.06a.093.093,0,0,0,.049.058l.026,0a.184.184,0,0,0,.094-.039,1.885,1.885,0,0,0,.223-.176l.254-.235.151-.169,0,0,0,0,.237-.378c.013-.025.028-.048.041-.072a.069.069,0,0,0,.06.017c.042,0,.083,0,.124,0a1.04,1.04,0,0,1,.972.655,1.913,1.913,0,0,1,.081.222.749.749,0,0,1,.023.179,1.327,1.327,0,0,1-.009.138,1.741,1.741,0,0,1-.04.218h.146c.016-.077.028-.15.035-.193,0-.06.007-.116.007-.159a1.337,1.337,0,0,0-1-1.229,1.245,1.245,0,0,1,.887.746,1.205,1.205,0,0,1,.116.483c0,.043,0,.1-.006.159-.006.043-.02.116-.036.194h.046c.016-.072.026-.139.033-.188s.007-.115.007-.168a.985.985,0,0,0-.031-.256c-.024-.08-.054-.158-.09-.252a1.224,1.224,0,0,0-1.1-.781c.041-.1.063-.2.081-.246a1.638,1.638,0,0,0,.083-.39l.008-.048s0-.01,0-.016h-.14a.305.305,0,0,0-.007.041v0a1.306,1.306,0,0,1-.076.348,2.68,2.68,0,0,1-.208.4c-.026.043-.052.091-.08.133-.118.2-.227.363-.233.373l-.146.162-.25.233s-.054.051-.115.1c-.03.021-.065.047-.093.063a.155.155,0,0,1-.052.025l0-.011-.006-.06a.428.428,0,0,0-.011-.08h0l0-.008a1.368,1.368,0,0,1,.053-.257.129.129,0,0,0,0-.022.874.874,0,0,0,.05-.169l-.086-.039a.005.005,0,0,0,0,0h0s0,0,0,.013c-.009.028-.027.084-.047.152,0,.012-.008.023-.013.033l-.032.051-.027.017h0c-.039-.017-.049-.034-.083-.086a.566.566,0,0,1-.031-.159c0-.043-.007-.119-.007-.119l0-.086-.06.036-.016.007a.34.34,0,0,1-.139.042l-.028-.006a.208.208,0,0,1-.1-.063l-.031-.033c.02-.023.06-.059.1-.1a.944.944,0,0,0,.151-.208,1.414,1.414,0,0,0,.1-.332v-.021a.214.214,0,0,0-.028-.1.327.327,0,0,1-.026-.065.673.673,0,0,1-.01-.123c0-.031,0-.058,0-.081h-.092c0,.023,0,.049,0,.081a1.006,1.006,0,0,0,.012.151.661.661,0,0,0,.036.1l.018.041v0a1.467,1.467,0,0,1-.084.272l-.053-.075-.061-.1.014-.045,0-.042,0-.047v-.012c0-.035-.006-.064-.006-.085l.008-.035.013-.011a.071.071,0,0,0-.043-.127l-.042.024c.008-.021.02-.045.028-.068s.006-.017.01-.027h-.1a.576.576,0,0,1-.544.386.679.679,0,0,1-.264-.053h0a1.465,1.465,0,0,0-.673-.224.68.68,0,0,0-.118.012l-.192.035-.063-.155h-.1l0,0h0l.1.247.013.039.257-.058c.032,0,.066-.007.1-.007a1.4,1.4,0,0,1,.637.218h0a.78.78,0,0,0,.3.063.667.667,0,0,0,.234-.045l.017.053a.111.111,0,0,0,.106.09h0a.1.1,0,0,0,.071-.034l.028.011,0,0,0,0c.025,0,.053,0,.081,0l.026,0,.064.078.071.09a1,1,0,0,1-.086.1c-.027.027-.051.052-.072.072a.291.291,0,0,0-.049.058h0l-.009.048a.138.138,0,0,0,.026.078.392.392,0,0,0,.176.139l.052.007a.362.362,0,0,0,.131-.031c0,.014,0,.034.006.049a.553.553,0,0,0,.044.206h0c.007.014.015.028.023.042l-.17.146a.246.246,0,0,0-.084-.054.259.259,0,0,0-.088-.027l-.038-.029v0h0a.186.186,0,0,0-.057-.029l-.032.018a.107.107,0,0,0-.045.094l.009.043a10.492,10.492,0,0,0-2.687-1.687Zm-11.036,2.345a.342.342,0,0,0-.1-.2l-.045-.041a.348.348,0,0,0,.057-.088.46.46,0,0,0,.037-.193V286a.408.408,0,0,0-.024-.161.374.374,0,0,0-.163-.234.273.273,0,0,0-.146-.051.4.4,0,0,0-.1.019.365.365,0,0,0-.215.157.4.4,0,0,0-.061.142,1.045,1.045,0,0,1-.037.129l.086.048a.851.851,0,0,0,.036-.141.319.319,0,0,1,.046-.1.271.271,0,0,1,.164-.124.4.4,0,0,1,.085-.014.21.21,0,0,1,.1.034.3.3,0,0,1,.117.175.353.353,0,0,1,.018.119v.024a.35.35,0,0,1-.024.141.165.165,0,0,1-.144.109h0l.01.121.012,0h.02a.141.141,0,0,1,.114.051.219.219,0,0,1,.061.113Zm2.637,0-.083-.041c-.048-.017-.078-.04-.1-.027s-.013.034,0,.07Zm1.324,0-.211-.548c-.049-.13-.055-.192-.011-.24l.054-.043c.022-.018.031-.03.025-.046s-.026-.007-.052.007c-.088.059-.156.113-.175.126-.04.027-.13.075-.226.139-.028.018-.046.031-.041.051s.018.017.041,0a.3.3,0,0,1,.1-.051c.052,0,.089.029.147.174l.182.43Zm1.105,0c-.008-.037-.018-.074-.028-.113l-.113-.439c-.1-.379-.112-.45-.131-.532s-.01-.138.039-.173a.143.143,0,0,1,.057-.034l.025-.036c0-.013-.021-.013-.046,0-.074.031-.189.088-.239.11s-.179.065-.255.1c-.032.012-.046.025-.042.04l.039.012a.257.257,0,0,1,.071-.022c.048,0,.079.03.1.117s.042.147.14.527l.11.442s0,.007,0,.01Zm1.308,0c.028-.16.079-.424.144-.757s.1-.5.145-.758a.577.577,0,0,1,.078-.258.156.156,0,0,1,.1-.054c.018-.007.031-.012.028-.03s-.02-.022-.046-.014c-.061.014-.158.045-.192.052s-.112.016-.213.04c-.039.01-.057.017-.054.039l.037.012a.331.331,0,0,1,.084,0l.034.043a.5.5,0,0,1-.006.1c-.025.181-.176,1.075-.223,1.383h-.007l-.513-1.1a1.045,1.045,0,0,1-.075-.193l.012-.058a.139.139,0,0,1,.078-.034l.028-.03c0-.021-.026-.021-.05-.015-.1.021-.2.053-.248.064-.074.014-.192.035-.3.057-.027.011-.053.016-.048.039l.027.016a.215.215,0,0,1,.078-.007c.078.012.118.031.183.162l.648,1.3Zm1.72,0a2.094,2.094,0,0,0,.02-.274c0-.024,0-.049-.016-.047s-.019.011-.024.04c-.012.107-.036.165-.09.2a.459.459,0,0,1-.194.037c-.21,0-.244-.036-.249-.216,0-.077-.006-.319-.007-.409l0-.209.015-.028c.048,0,.252,0,.293,0a.118.118,0,0,1,.114.1.762.762,0,0,1,.01.1l.018.023.02-.053c0-.013,0-.122,0-.171.006-.139.015-.18.015-.2l-.019-.021-.03.037c-.019.027-.049.034-.1.042l-.328.011-.015-.029-.011-.666.015-.027c.041,0,.257,0,.293,0,.1.016.124.045.14.091a.486.486,0,0,1,.014.1l.018.035.022-.03c0-.03.006-.145.006-.171,0-.121.016-.155.016-.174l-.014-.021-.032.008c-.018.006-.05.012-.088.021s-.451.011-.515.011-.19,0-.3,0c-.028,0-.043.008-.042.025s.013.022.034.022a.188.188,0,0,1,.081.007c.07.017.086.059.091.147s.006.159.01.558l.007.467c0,.241.007.449,0,.561a.56.56,0,0,1-.021.1Zm.784,0a.391.391,0,0,1-.007-.084c0-.109.023-.317.046-.561l0-.036.02-.021.175.033.036.027c.024.045.1.233.169.39.043.1.082.183.116.252h.275c-.1-.18-.217-.43-.369-.74a.741.741,0,0,0,.326-.543.53.53,0,0,0-.1-.384.6.6,0,0,0-.366-.17c-.064-.011-.219-.027-.29-.037-.042-.007-.171-.036-.28-.052-.03,0-.046,0-.047.016s.009.028.033.029a.384.384,0,0,1,.08.024c.063.023.077.072.073.159s-.012.158-.049.553l-.044.463c-.024.241-.043.447-.066.554-.011.06-.024.111-.051.129Zm1.242,0a.776.776,0,0,1,.009-.133l-.009-.049c-.019-.006-.031.022-.041.058,0,.021-.018.066-.031.124Zm.811,0a1.08,1.08,0,0,0-.206-.665l-.044-.072c-.133-.217-.161-.321-.135-.439a.214.214,0,0,1,.294-.181.294.294,0,0,1,.191.2.385.385,0,0,1,.015.185c-.008.029,0,.049.009.052s.027-.011.041-.07c.041-.2.065-.267.072-.3l-.021-.041a.867.867,0,0,0-.258-.134.4.4,0,0,0-.562.321.941.941,0,0,0,.169.707l.072.126a.775.775,0,0,1,.121.313Zm.868,0,.058-.192c.114-.377.136-.446.164-.521s.058-.118.112-.106a.636.636,0,0,1,.063.022l.037-.01c0-.014-.01-.028-.036-.042-.074-.034-.189-.08-.235-.105s-.178-.1-.249-.13c-.03-.016-.05-.021-.053,0l.024.039a.311.311,0,0,1,.067.046c.037.031.044.083.022.169s-.04.15-.15.523l-.1.313Zm1.285,0c.016-.03.027-.057.038-.074l.042-.028a.7.7,0,0,1,.123.075l.034.027h.178c-.045-.041-.092-.075-.133-.111-.1-.081-.219-.163-.273-.209s-.155-.132-.249-.2c-.026-.027-.041-.031-.048-.013l.019.046a.228.228,0,0,1,.067.059c.05.059.044.106.011.188-.022.049-.043.1-.112.241Zm3.094,0a.261.261,0,0,1,.06-.113.144.144,0,0,1,.118-.051h.018a.042.042,0,0,0,.014,0l0-.062,0-.059a.163.163,0,0,1-.146-.112v0a.41.41,0,0,1-.023-.141V286a.406.406,0,0,1,.017-.119.285.285,0,0,1,.12-.175.2.2,0,0,1,.1-.034.36.36,0,0,1,.085.014.275.275,0,0,1,.165.124.308.308,0,0,1,.043.1,1.01,1.01,0,0,0,.041.141l.083-.048a.9.9,0,0,1-.034-.129.453.453,0,0,0-.065-.142.355.355,0,0,0-.214-.157.369.369,0,0,0-.1-.019.29.29,0,0,0-.148.051.39.39,0,0,0-.161.234.49.49,0,0,0-.023.161v.029a.413.413,0,0,0,.037.193.336.336,0,0,0,.058.092.256.256,0,0,0-.046.037.356.356,0,0,0-.1.2Zm-1.883-1.857v0l.008-.013a.156.156,0,0,0,.048.024l.043.006a.1.1,0,0,0,.067-.03h0l.032-.053,0-.01v0a.449.449,0,0,0,0-.071v-.019a.465.465,0,0,0-.008-.083l0-.033.046-.066h.009l.019.008,0,0a.106.106,0,0,0-.034.037l-.014.064c0,.033.009.058.007.084v.012l0,.047,0,.021-.018.064-.006.013.08.124.061.09s0,.006,0,.006l-.068-.086-.071-.086-.006-.008-.044-.007H548.8a.667.667,0,0,1-.075.006l-.042-.017-.014,0-.009.012a.047.047,0,0,1-.049.027h0a.052.052,0,0,1-.028-.006.142.142,0,0,0,.069-.051m-.091-.006-.027-.006-.042-.014a.7.7,0,0,0,.31-.262l0,.039c0,.031.007.048.009.075v.019l0,.057-.023.037-.038.018-.034-.007a.084.084,0,0,1-.048-.03l-.019-.021-.033.063c-.02.022-.034.033-.056.033m.3-.381a.009.009,0,0,1,0,0h0Zm-.13,1.6.032,0,.049,0a.361.361,0,0,1,.07.022.327.327,0,0,1,.1.068l.036.043.027.047c.019.034.021.063.041.109l.026.054c-.128-.117-.255-.235-.387-.345Zm.353.146h0l-.029-.051,0,0-.039-.043a.386.386,0,0,0-.115-.08.322.322,0,0,0-.079-.022.169.169,0,0,0-.054-.007h-.018v0l.019-.048h.013l.034.013.042.036,0,0h.006a.253.253,0,0,1,.083.022.286.286,0,0,1,.086.058l.014.013.2-.175a.176.176,0,0,0,.022.018l-.21.176.016.024c.022.035.029.054.047.089s.021.052.032.091l0,0,.023.042,0,.007.052.02.013.021,0,.007-.026-.017h0l-.054-.012c-.011-.027-.021-.041-.033-.072a1.128,1.128,0,0,0-.044-.115m1.737-.976a1.145,1.145,0,0,0-.193-.014h-.059l-.053,0h0l.051,0h.06a1.143,1.143,0,0,1,.194.014m-15.583-.485a.232.232,0,0,0-.178.076.367.367,0,0,0-.09.263.689.689,0,0,0,.138.4.464.464,0,0,0,.356.223.233.233,0,0,0,.174-.075.369.369,0,0,0,.091-.257.721.721,0,0,0-.138-.407.475.475,0,0,0-.354-.224m.342.8a.163.163,0,0,1-.115.047.391.391,0,0,1-.29-.183.6.6,0,0,1-.112-.322.235.235,0,0,1,.058-.173.148.148,0,0,1,.118-.047.394.394,0,0,1,.285.185.56.56,0,0,1,.113.327.243.243,0,0,1-.056.167m7.719.263.077-.8.023-.033a.386.386,0,0,1,.109,0c.123.019.3.157.268.531a.5.5,0,0,1-.158.373c-.041.03-.067.035-.151.021a.41.41,0,0,1-.152-.052c-.014-.007-.017-.019-.014-.048" transform="translate(-359.916 -203.169)" fill="#dde5eb"/>
      <path id="Trazado_15" data-name="Trazado 15" d="M536.9,276.575a.551.551,0,0,0-.026.164.483.483,0,0,0,.055.227s.028.063.1.193l-1.7.116a.085.085,0,0,0-.064.037.133.133,0,0,0-.023.087l.055,1.306c0,.062.044.111.094.109l.182,0c-.01.039-.02.081-.031.124h.14c.01-.047.02-.088.029-.127a0,0,0,0,0,0,0,1.187,1.187,0,0,1,.036-.115.165.165,0,0,1,.006-.019l-.086-.048.086.048-.006.019a.914.914,0,0,0-.034.113s0,0,0,0q-.014.058-.028.123l.053,0c.024-.086.047-.161.061-.2a.15.15,0,0,0,.008-.052l.206-.013-.015-.3.426-.028.01.232,0,.063.38-.029v-.059c-.012-.269-.018-.448-.023-.536l.81-.051c.012.022.026.043.038.065h0l.18.292-.387.53a.9.9,0,0,0-.55-.221.564.564,0,0,0-.407.169.672.672,0,0,0-.1.127l.129,0c.01-.013.021-.024.031-.037a.506.506,0,0,1,.352-.147.8.8,0,0,1,.475.185h.15l.372-.512c.1.159.189.305.269.431l0,0,0,0-.054.075h.225l-.042-.064a.011.011,0,0,1,0,0c.053-.057.078-.087.14-.145a2.812,2.812,0,0,1,.32-.281c.093-.071.154-.115.154-.115l.031-.018-.008-.046,0-.062a.318.318,0,0,1,.139-.276.182.182,0,0,1,.095-.027.228.228,0,0,1,.189.118l.022.034.03-.016.188-.083a3.565,3.565,0,0,1,.354-.13l.018-.006c.064-.018.093-.023.155-.036v.013l0,.013.025.2a3.581,3.581,0,0,0-.933.335,3.23,3.23,0,0,0-.7.588l.142,0a2.767,2.767,0,0,1,.6-.48,2.911,2.911,0,0,1,.612-.256c.131-.037.238-.063.295-.077,0,.023,0,.043,0,.059v0a1.645,1.645,0,0,1,.019.186v.014a.379.379,0,0,1-.058.01h0a2.5,2.5,0,0,0-.781.313,2.847,2.847,0,0,0-.331.229h.183c.057-.041.121-.083.187-.122a2.771,2.771,0,0,1,.533-.244c.071-.024.125-.039.161-.047l.06-.012a.19.19,0,0,0,.1-.027l.033-.053.008-.062c0-.049-.008-.11-.018-.2h0c0-.017,0-.04,0-.062v0c-.008-.081-.022-.182-.038-.3l.6-.04a1.364,1.364,0,0,0,.276.539.542.542,0,0,0,.415.185.742.742,0,0,0,.194-.025.676.676,0,0,0,.432-.4,1.753,1.753,0,0,0,.13-.7c0-.066,0-.138-.008-.2a2.129,2.129,0,0,0-.136-.577h-.106a1.87,1.87,0,0,1,.148.59c0,.065.01.129.01.191a1.607,1.607,0,0,1-.117.638.574.574,0,0,1-.373.349.633.633,0,0,1-.173.025.474.474,0,0,1-.357-.162,1.339,1.339,0,0,1-.26-.53l-.01-.043-.036,0-.643.042a.017.017,0,0,0,0-.007l0-.029c-.022-.151-.049-.323-.079-.508l.735-.048,0-.053a1.625,1.625,0,0,1,.1-.457h-.1a1.68,1.68,0,0,0-.084.4l-.668.046c-.013-.075-.025-.148-.04-.223l-.027-.176h0c0-.014-.006-.029-.008-.045h-.1c0,.012,0,.025.007.037s0,.018,0,.027a.25.25,0,0,1-.027,0c-.048.008-.1.018-.146.029s-.128.028-.194.047a2.788,2.788,0,0,0-.527.205.2.2,0,0,0-.026-.034.359.359,0,0,0-.082-.064.262.262,0,0,0-.264,0,.418.418,0,0,0-.185.3.564.564,0,0,0-.008.091c0,.008,0,.019,0,.029a.048.048,0,0,0,0,.011,3.5,3.5,0,0,0-.461.383c-.061.064-.126.129-.186.2-.036.04-.071.08-.1.117-.021-.034-.041-.071-.063-.105-.063-.111-.13-.227-.2-.34l.177-.206c.035-.04.073-.083.113-.126a3.854,3.854,0,0,1,.68-.6h-.185a4.707,4.707,0,0,0-.645.609c-.04.046-.075.088-.108.124l-.086.105-.053-.094-.051-.086.026-.03c.094-.111.268-.305.393-.426a2.623,2.623,0,0,1,.229-.2h-.168c-.039.036-.078.071-.118.107-.136.133-.32.342-.413.449,0,0,0,0,0,0-.1-.165-.162-.284-.162-.287h0a.35.35,0,0,1-.037-.15.358.358,0,0,1,.025-.124Zm6.214,0s0,.006,0,.006l.032.222a.245.245,0,0,1-.068.18.16.16,0,0,1-.125.058.212.212,0,0,1-.156-.071.33.33,0,0,1-.078-.169l-.026-.04-.034,0-.23.091a.057.057,0,0,0-.032.066,2.591,2.591,0,0,1,.071.439v.056a1.468,1.468,0,0,1-.049.378l.006.057.04.027a1.679,1.679,0,0,0,.814-.186,1.66,1.66,0,0,0,.348-.216,2.657,2.657,0,0,0,.285-.238l.019-.043-.013-.049a2.935,2.935,0,0,1-.26-.331c-.065-.088-.108-.156-.155-.233h-.114a2.973,2.973,0,0,0,.2.313,2.942,2.942,0,0,0,.223.292,2.094,2.094,0,0,1-.23.187,1.621,1.621,0,0,1-.332.209,1.519,1.519,0,0,1-.724.173,1.611,1.611,0,0,0,.038-.338l0-.065a2.3,2.3,0,0,0-.06-.4l.143-.057a.423.423,0,0,0,.1.174.309.309,0,0,0,.215.1.253.253,0,0,0,.187-.089h0a.378.378,0,0,0,.1-.269v-.011l-.026-.183.072-.031Zm.615,0a2.332,2.332,0,0,0,.439.5h.052a2.054,2.054,0,0,0,.4-.5H544.5a1.793,1.793,0,0,1-.307.377,2.107,2.107,0,0,1-.341-.375Zm1.141,0c-.044.077-.088.145-.151.238v0a3.168,3.168,0,0,1-.26.331l-.017.049.02.043a2.68,2.68,0,0,0,.285.238,1.874,1.874,0,0,0,1.163.4l.04-.027,0-.057a1.428,1.428,0,0,1-.051-.378l0-.056a2.686,2.686,0,0,1,.071-.439.058.058,0,0,0-.031-.066l-.231-.091-.036,0-.021.04a.334.334,0,0,1-.081.169.211.211,0,0,1-.154.071.164.164,0,0,1-.128-.058.254.254,0,0,1-.068-.175l.032-.227s0,0,0-.008l-.167,0,.07.031-.027.183v.011a.375.375,0,0,0,.1.269.254.254,0,0,0,.189.089.31.31,0,0,0,.213-.1.435.435,0,0,0,.1-.174l.144.058a2.44,2.44,0,0,0-.063.4v.065a1.546,1.546,0,0,0,.036.338,1.484,1.484,0,0,1-.722-.173,1.621,1.621,0,0,1-.332-.209,2.137,2.137,0,0,1-.232-.187,3.064,3.064,0,0,0,.225-.292,3.261,3.261,0,0,0,.2-.311Zm1.217,0a.265.265,0,0,0-.064.175v.011a.3.3,0,0,0,.02.107l.025.058.091-.077c.014.039.025.07.042.123a.776.776,0,0,1,.049.186c0,.027,0,.046,0,.06a.355.355,0,0,1-.009.076h0a.3.3,0,0,1-.054.148l-.026.041.029.036a2.663,2.663,0,0,1,.231.356c.042.075.066.121.1.2l.016.106-.021.257,0,.046c-.181-.047-.358-.091-.543-.123,0,0,0-.007,0-.011a.059.059,0,0,0-.031-.07,6.8,6.8,0,0,1-.918-.383c-.205-.1-.318-.16-.517-.281l-.044,0-.275.2-.277-.2-.044,0c-.2.121-.311.179-.517.281a6.8,6.8,0,0,1-.918.383.063.063,0,0,0-.032.07s0,.006,0,.011a9.392,9.392,0,0,0-1.825.571l.623,0a8.853,8.853,0,0,1,5.98,0h.622a8.364,8.364,0,0,0-.945-.35l0-.216v-.019l-.095-.176a3.117,3.117,0,0,0-.106-.343c-.046-.127-.077-.2-.127-.311.044-.053.067-.083.086-.111a.954.954,0,0,0,.049-.121.7.7,0,0,0,.044-.176c.007.008.014.022.024.036a.508.508,0,0,1,.055.247v.048l.016.016c.051.064.084.1.138.159a1.811,1.811,0,0,0,.153.151l.11.113.022.022.134-.071.392.105a1.13,1.13,0,0,0,.284.379l0,0h0a1.561,1.561,0,0,1,.581.611l.1,0-.021-.053a1.656,1.656,0,0,0-.616-.664.984.984,0,0,1-.345-.731.911.911,0,0,1,.057-.313,1.744,1.744,0,0,1,.316-.443l0,0c.044-.059.083-.1.118-.151h-.265l.02.138a1.5,1.5,0,0,0-.273.411.914.914,0,0,0-.044.157l-.082.127-.02.024c-.031.048-.112.142-.166.154l-.037,0a.2.2,0,0,1-.078-.013.068.068,0,0,1-.026-.006l-.2-.2c.007-.029.016-.063.025-.1a.807.807,0,0,0,.026-.161c0-.033,0-.1-.009-.168a.415.415,0,0,0-.014-.088l-.01-.041-.015-.022v0l0,0c.022-.018.041-.034.058-.046a1.5,1.5,0,0,0,.153-.163h-.136c-.023.023-.046.043-.07.064s-.069.057-.1.081l-.031.027.01.043a.11.11,0,0,0,.034.054l.009.012h0l.01.035h.008c0,.024.007.06.01.1s0,.1,0,.122a.582.582,0,0,1-.024.122c-.012.051-.027.1-.033.136l-.009.037.255.274.014,0a.5.5,0,0,0,.136.023l.054-.007a.4.4,0,0,0,.156-.111v.087l.03.1-.242-.063-.015,0-.109.057-.094-.1v0a1.609,1.609,0,0,1-.148-.144c-.047-.051-.076-.085-.117-.133a.635.635,0,0,0-.073-.308.53.53,0,0,0-.108-.156l-.075-.069,0,.117a.65.65,0,0,1-.043.257.457.457,0,0,1-.04.1.936.936,0,0,1-.1.133l-.027.031.02.042c.057.132.089.2.14.339s.07.206.108.344v.006l.082.157v.07l-.161-.056.017-.215v-.01l-.022-.135v-.008l-.006-.008a2.367,2.367,0,0,0-.109-.216h0a2.972,2.972,0,0,0-.214-.329.471.471,0,0,0,.052-.158.519.519,0,0,0,.007-.1c0-.024,0-.048,0-.074v0a.98.98,0,0,0-.057-.214c-.023-.074-.041-.119-.069-.192l-.024-.059-.075.063a.1.1,0,0,1,.067-.093l.029-.012.007-.031a.154.154,0,0,1,.006-.027Zm2.68,0,.166.553-.461.754.022.047h0l.77-.023.447.79h.036l.2-.934.5-.176.319.2a2.213,2.213,0,0,0-.083.525v.006a2.189,2.189,0,0,1-.079.594h0a.146.146,0,0,1-.009.017l.1,0a.76.76,0,0,0,.025-.088.156.156,0,0,0,.039.034.179.179,0,0,0,.081.013h.008c0,.013,0,.024,0,.041h.092c0-.017,0-.029,0-.041a.508.508,0,0,1,.006-.054l.009-.081-.064.014h-.014l-.037,0-.051-.01h0c-.008,0-.023-.019-.026-.048l-.008-.036v0l.019-.256.028-.345s.035-.174.068-.275a1.309,1.309,0,0,1,.118-.25l.089-.145a1.2,1.2,0,0,1,.086-.1c.026-.03.057-.06.089-.092a.849.849,0,0,1,.205-.139l.047-.027a.146.146,0,0,1,.033.07c0,.03.008.071.015.122a.457.457,0,0,1,.009.088,1.271,1.271,0,0,1-.019.176,1.365,1.365,0,0,1-.066.28c-.006.021-.013.047-.022.07a.986.986,0,0,1-.038.1l-.05.13.181-.082.029-.013.023-.012.036-.016.029-.011V277.9l0-.025,0-.012,0-.017.013-.008h0l.023.007h0l.028.017.013.012,0,0,.023.022.026-.014.034-.013.026-.01.023.007h.009l.048-.024.019-.062a.317.317,0,0,0-.035-.113.371.371,0,0,0-.068-.088.234.234,0,0,0-.076-.037l-.029-.01,0-.006h0l.025-.048.013-.016.027,0h.015l.022,0,.039-.054h0l0-.006.038-.04h.011l.027.006.019.006h.008l.024,0,.041.017.044.049.017.031.007.012.018.035.114-.041.07.259-.051.017-.031.01v.046l-.009.069a.157.157,0,0,1-.041.082l-.041.039-.025.018-.009.006-.061.093-.027.04.03.036.007.011.037.087c0,.028-.006.03-.026.071l-.045.053-.032.027-.038.027.072.2.023.059.044-.029a.337.337,0,0,1,.065-.046c.03-.018.062-.039.092-.054a.245.245,0,0,1,.031-.012.2.2,0,0,1,.074-.028l.008,0c.033,0,.04.01.073.041a.218.218,0,0,1,.058.11.257.257,0,0,1,.017.106l0,.028a.45.45,0,0,1-.011.078h.14a.307.307,0,0,0,.007-.07l0-.036a.6.6,0,0,0-.027-.174.411.411,0,0,0-.1-.174v0a.31.31,0,0,0-.216-.1l.006-.008a.153.153,0,0,0,0-.121l-.016-.039.05-.063.01-.019.044-.086.15-.07a.124.124,0,0,0,.053-.148l-.161-.622a.116.116,0,0,0-.049-.068.082.082,0,0,0-.071,0l-.119.058-.091-.072-.048-.019h-.217l-.044.015-.149.107a.012.012,0,0,1,0-.007,1.2,1.2,0,0,0-.016-.132.454.454,0,0,0-.015-.052.152.152,0,0,0,.008-.088l-.076-.361h-.142l0,.023.059.281.01.046-.032.01a.031.031,0,0,1-.012,0l-.026.012a.939.939,0,0,0-.215.135,1.5,1.5,0,0,0-.427.6l-.229-.142.12-.043.011-.041v-.007l-.647-.538.006-.334h-.1v.332l-.2.127-.052.034-.051.033h0l-.026.017.008-.029h0l.021-.053.021-.051.159-.408h-.1l-.142.36h0l-.02.051-.02.052v0l-.02.049-.008-.066v0l-.006-.069-.01-.068v0l-.028-.278.025-.028H549.3l.092.041.032.209.01.071.012.072h0l.018.121-.172-.218h0l-.1-.129,0,0-.1-.123,0,0-.03-.037h-.129l0,.006.113.135v0l.368.44-.391-.074-.146-.474-.011-.037Zm.891.734.494.094h0l.15.027v0l.145.024v0l-.064.023h0l-.066.022h0l-.387.134Zm.2.373-.13.644-.13-.947Zm.364-.366h0l-.138-.024-.143-.023h0l-.272-.046.094-.065.048-.035.047-.034h0l.128-.088,0,.008.458.346Zm-.7.086.127.938-.3-.509Zm-.088-.057-.165.427-.525.022Zm-.714.337.3-.491.4.071Zm-8.769.013a.178.178,0,0,0-.043.013,2.86,2.86,0,0,0-.365.133c-.069.028-.127.056-.159.07a.312.312,0,0,0-.238-.133.324.324,0,0,0-.1.021.265.265,0,0,1-.035.019.37.37,0,0,0-.075.063.426.426,0,0,0-.107.217.407.407,0,0,0-.011.1.309.309,0,0,0,0,.041c-.041.029-.122.087-.215.165a3.079,3.079,0,0,0-.246.218c-.059.062-.089.1-.141.153l0-.012c-.083-.124-.176-.273-.273-.43a.031.031,0,0,0-.009-.016c.041-.051.086-.1.138-.163s.139-.154.222-.237c.043-.041.089-.083.136-.127a2.818,2.818,0,0,1,.446-.329,2.7,2.7,0,0,1,.431-.2c.057-.02.113-.037.167-.054s.106-.03.155-.045a.09.09,0,0,1,.018,0c.107-.028.2-.049.271-.062l.078-.016c0,.018,0,.035.009.054.03.186.058.362.08.518a1.022,1.022,0,0,0-.134.034m-.319-.647a.241.241,0,0,0-.046.013c-.05.014-.1.028-.16.046a2.445,2.445,0,0,0-.258.091,2.279,2.279,0,0,0-.329.158,2.873,2.873,0,0,0-.379.272c-.072.058-.138.121-.2.18-.045.042-.088.085-.126.126-.053.056-.1.109-.144.157s-.082.1-.115.139h0l-.111-.179,0,0c.027-.029.057-.063.086-.1s.075-.084.114-.124.06-.064.093-.094a2.97,2.97,0,0,1,.316-.274c.093-.072.158-.116.159-.116l.012-.01.019-.013,0-.011,0-.031,0-.04v-.021a.416.416,0,0,1,.013-.1.273.273,0,0,1,.126-.18.176.176,0,0,1,.1-.029.156.156,0,0,1,.058.012.263.263,0,0,1,.09.056.472.472,0,0,1,.04.051l.02.035.034-.014a.951.951,0,0,1,.171-.083,2.467,2.467,0,0,1,.367-.132c.025-.007.047-.011.071-.017.052-.013.1-.024.151-.034s.1-.023.148-.03c0,0,0,0,0,0l.018.119.015.1c-.065.011-.19.035-.341.074m-4.153,1.529-.046-1.074,1.772-.121a.078.078,0,0,0,.045-.018c.09.154.19.328.286.49l-.841.057,0,.057s.008.185.02.537l-.2.012-.008-.231,0-.059-.612.039.015.3-.181.012a.032.032,0,0,0-.02,0Zm10.194-.274a8.942,8.942,0,0,0-2.972,0,6.887,6.887,0,0,0,.686-.3c.2-.1.315-.163.5-.272l.281.2h.044l.281-.2c.187.107.3.171.5.27a7.046,7.046,0,0,0,.678.3m-4.385-.618a.275.275,0,0,0,.215.141l.048-.006a.3.3,0,0,0,.185-.181.852.852,0,0,0,.058-.44.736.736,0,0,0-.111-.331.276.276,0,0,0-.216-.14l-.048,0a.313.313,0,0,0-.183.185.774.774,0,0,0-.069.326c0,.036.006.076.008.113a.759.759,0,0,0,.112.331m.025-.711a.211.211,0,0,1,.125-.126l.03,0a.189.189,0,0,1,.144.1.621.621,0,0,1,.093.273c0,.031,0,.064,0,.1a.624.624,0,0,1-.053.264.2.2,0,0,1-.124.127l-.029,0a.188.188,0,0,1-.145-.1.6.6,0,0,1-.093-.275c0-.029,0-.06,0-.094a.657.657,0,0,1,.051-.267m10.758.491-.08.084h.143Z" transform="translate(-361.705 -197.892)" fill="#dde5eb"/>
      <path id="Trazado_16" data-name="Trazado 16" d="M542.239,259.386a.643.643,0,0,1,.119-.188h0a5.587,5.587,0,0,1,.528-.543.411.411,0,0,0,.13-.288.354.354,0,0,0-.023-.132.45.45,0,0,1-.026-.154.374.374,0,0,1,.164-.326.219.219,0,0,1,.118-.037.3.3,0,0,1,.26.22.232.232,0,0,0,.217.171.3.3,0,0,0,.1-.019,3.336,3.336,0,0,1,.7-.163h0a.314.314,0,0,1,.075-.008.248.248,0,0,1,.152.042.254.254,0,0,1,.081.115c0,.014.01.031.013.048h0c0,.012.012.065.027.147.011.053.023.117.038.191h0c-.123.021-.358.066-.532.115a3.663,3.663,0,0,0-.526.2.3.3,0,0,0-.235-.13.262.262,0,0,0-.137.039.446.446,0,0,0-.192.384c0,.014,0,.029,0,.045-.06.043-.2.148-.342.272h.167c.029-.025.06-.047.088-.069.094-.075.16-.121.16-.121l.028-.022,0-.042-.006-.063a.323.323,0,0,1,.135-.276.222.222,0,0,1,.1-.025.227.227,0,0,1,.186.117l.022.035.03-.016s.074-.039.179-.084a2.758,2.758,0,0,1,.364-.13c.144-.041.337-.082.466-.1l.07-.013.014.071.014.082.01.068c-.044.008-.1.014-.152.024l-.147.025a3.154,3.154,0,0,0-1.008.369c-.089.054-.174.113-.254.171l.184,0c.036-.021.072-.043.108-.066a2.954,2.954,0,0,1,.867-.335c.054-.011.1-.021.151-.028.1-.022.2-.036.274-.047.024.125.047.253.068.377.007.034.013.068.02.1h.1c0-.021-.009-.043-.013-.066l.616-.845c.048.059.151.179.3.364l.035.043.262-.358-.168-.2.291-.4.134.163.036.042.372-.514a.087.087,0,0,0,.064-.011.124.124,0,0,0,.048-.119,2.707,2.707,0,0,1-.019-.313,1.213,1.213,0,0,1,.245-.826.716.716,0,0,1,.542-.235.826.826,0,0,1,.534.162.658.658,0,0,1,.092.092,1.406,1.406,0,0,1,.071.128,1.173,1.173,0,0,1,.126.263s0,0,0,.006h0a.109.109,0,0,0,.055.07v0h.556l.515,0h.048l.006-.018,0,.018h-.049a.092.092,0,0,0,.12-.065,1.526,1.526,0,0,1,.112-.278c.009-.018.017-.033.026-.049a.68.68,0,0,1,.151-.167.809.809,0,0,1,.531-.162.7.7,0,0,1,.539.245,1.211,1.211,0,0,1,.243.811c0,.076-.006.16-.013.246a.131.131,0,0,0,.048.121.076.076,0,0,0,.106-.017l.269-.311.011.019-.042.068-.038.071.158.054,0,0,.024,0a1.494,1.494,0,0,0,.076.241v0a1.265,1.265,0,0,0,.1.226l.02.062c-.015.041-.024.069-.042.115s-.026.078-.043.125c-.1.1-.169.169-.272.279s-.141.159-.225.262a.715.715,0,0,0-.271.251,1.017,1.017,0,0,0-.163.36.147.147,0,0,0-.051.039h.138a.843.843,0,0,1,.145-.319.689.689,0,0,1,.247-.228l.007,0,.006-.007c.087-.106.134-.162.227-.263s.165-.177.278-.284l.012-.012,0-.012c.02-.054.03-.084.047-.136s.03-.084.048-.138l.009-.025-.033-.107,0-.006,0,0a1.63,1.63,0,0,1-.1-.224,1.67,1.67,0,0,1-.078-.262l-.009-.04-.078-.008-.026-.008,0-.006.019-.023.024-.039-.058-.1.186-.209.013-.017.078.092.013.016h.016l.043-.006.068.018.029.068.009.018.22.112,0,.07,0,.024-.06.011-.126.027-.063.016.03.071a.522.522,0,0,0,.056.106.708.708,0,0,0,.131.153,1.121,1.121,0,0,0,.191.15l.024.018.091-.087.093-.035h.143l.165.087a.789.789,0,0,1,.1.244.893.893,0,0,1,.025.208v.043l-.042.1-.056-.121.031-.085,0-.013,0-.016a.549.549,0,0,0-.01-.1.393.393,0,0,0-.062-.173.2.2,0,0,0-.148-.077h0a.192.192,0,0,0-.109.043.239.239,0,0,0-.048.037h0l-.112.09-.025.023,0,.036c0,.034,0,.064,0,.088a.955.955,0,0,1-.013.144.723.723,0,0,1-.077.238l-.053.1.1-.014a1.029,1.029,0,0,1,.195-.029l.045.021a.385.385,0,0,1,.042.049l.071.625-.039.051-.031-.211h0a1.027,1.027,0,0,1,0-.105v-.1a.277.277,0,0,0-.064-.208.069.069,0,0,0-.056-.027.765.765,0,0,0-.134.037c-.116.033-.193.113-.249.124l-.02,0-.012.023a1.805,1.805,0,0,1-.23.355c-.045.053-.081.1-.117.133l.137,0c.013-.017.028-.033.043-.054a1.513,1.513,0,0,0,.234-.351c.087-.03.15-.1.233-.122a.688.688,0,0,1,.115-.03.164.164,0,0,1,.028.113c0,.028,0,.058,0,.1s0,.077,0,.122v0l.035.223h.266a.346.346,0,0,0,.041-.054.843.843,0,0,0,.115-.2l.346.214.012.043h.1l-.013-.045h0l-.023-.074.1.12h.13l-.131-.167.376.167h.211l.392-.407-.162.407h.1l.124-.319v.319h.1l0-.652-.029-.029h-.006l0,0-.594.609-.747-.328-.028.042,0,0,.043.145-.255-.157a1.987,1.987,0,0,0,.111-.652,1.676,1.676,0,0,0-.065-.475c-.006-.017-.011-.039-.018-.056l.246-.132.044-.028c.009.013.024.028.037.047a.977.977,0,0,0,.254.218.827.827,0,0,0,.409.074.924.924,0,0,1,.333.123l0,0a.12.12,0,0,0,.063.018.1.1,0,0,0,.1-.1v0a.878.878,0,0,0,.008-.089v-.008a.308.308,0,0,1,.288-.278.277.277,0,0,1,.146.043.431.431,0,0,1,.178.36.353.353,0,0,1-.067.214v0s0,0,0,0a.69.69,0,0,0-.05.064.146.146,0,0,0-.022.076.154.154,0,0,0,.072.132l0,0h0a1.149,1.149,0,0,1,.283.259,1.246,1.246,0,0,0,.3.367.859.859,0,0,0,.293.119c.019,0,.036.006.049.01l.008.04h.142l-.026-.123a.1.1,0,0,0-.08-.089h-.008a.813.813,0,0,1-.312-.112.576.576,0,0,1-.14-.144c-.034-.052-.068-.116-.122-.189a1.367,1.367,0,0,0-.3-.279l.007-.01a.545.545,0,0,0,.111-.343.612.612,0,0,0-.256-.518.4.4,0,0,0-.205-.062.417.417,0,0,0-.276.116.511.511,0,0,0-.15.323v.012a1,1,0,0,0-.355-.124v0c-.077-.006-.139,0-.192,0a.386.386,0,0,1-.175-.051.672.672,0,0,1-.184-.156.414.414,0,0,1-.06-.07l-.018-.019,0,0a.084.084,0,0,0-.106-.03l-.3.162-.265-.224-.044-.023-.138-.011-.034,0-.122.045-.032.019-.051.051-.013-.011.037-.051a.157.157,0,0,0,.024-.08v-.107l0-.036-.034-.141a.106.106,0,0,0-.053-.072l-.218-.11-.025-.057a.1.1,0,0,0-.062-.057l-.095-.025h-.031l-.109-.129a.076.076,0,0,0-.124,0l-.438.5a1.479,1.479,0,0,0-.3-.965.861.861,0,0,0-.662-.308,1.187,1.187,0,0,0-.32.04c.038-.063.064-.118.1-.193a2.4,2.4,0,0,0,.226-.593h.118a.078.078,0,0,0,.066-.034.139.139,0,0,0,.028-.085v-.6a.107.107,0,0,0-.094-.117h-.406a1.261,1.261,0,0,0-.193-.525.8.8,0,0,0-.585-.378v-.328h.3a.089.089,0,0,0,.066-.036.143.143,0,0,0,.025-.08v-.616a.151.151,0,0,0-.025-.088.092.092,0,0,0-.066-.033h-.3v-.4a.125.125,0,0,0-.026-.084.074.074,0,0,0-.065-.035h-.594a.074.074,0,0,0-.066.035.124.124,0,0,0-.026.084v.4h-.3a.091.091,0,0,0-.065.035.138.138,0,0,0-.026.086v.611a.135.135,0,0,0,.026.085.093.093,0,0,0,.065.036h.3v.343a.86.86,0,0,0-.558.367,1.246,1.246,0,0,0-.22.521h-.428c-.052,0-.092.051-.092.117v.6a.144.144,0,0,0,.026.084.081.081,0,0,0,.065.034h.128a2.549,2.549,0,0,0,.227.591h0c.04.077.066.132.1.194a1.147,1.147,0,0,0-.307-.039.877.877,0,0,0-.663.294,1.459,1.459,0,0,0-.306,1v.037l-.558-.651a.083.083,0,0,0-.131,0l-1.215,1.667c-.018-.1-.029-.168-.029-.17l0,0a.39.39,0,0,0-.176-.262.517.517,0,0,0-.235-.06.637.637,0,0,0-.11.01,3.873,3.873,0,0,0-.718.173h0a.182.182,0,0,1-.063.008c-.053,0-.073-.016-.094-.068a.436.436,0,0,0-.389-.317.331.331,0,0,0-.171.051.564.564,0,0,0-.244.489.646.646,0,0,0,.039.229l.01.053a.215.215,0,0,1-.074.148v0a5.532,5.532,0,0,0-.538.558.861.861,0,0,0-.141.2.66.66,0,0,0-.045.119Zm3.875,0c.014-.034.029-.07.044-.1a.639.639,0,0,1,.373-.357.537.537,0,0,1,.112-.014.572.572,0,0,1,.458.332,1.381,1.381,0,0,1,.072.141l.106,0a1.693,1.693,0,0,0-.106-.218.655.655,0,0,0-.53-.374.543.543,0,0,0-.13.017.731.731,0,0,0-.431.409,1.175,1.175,0,0,0-.07.167Zm2.35,0,.081-.037c.008.011.013.024.021.035l.116,0c-.025-.043-.053-.089-.083-.144l-.051-.019-.222.1a.06.06,0,0,0-.033.058Zm.566,0c-.024-.031-.046-.066-.07-.1a1.737,1.737,0,0,1-.252-.547,1.625,1.625,0,0,1-.058-.41.5.5,0,0,0,.25-.127.668.668,0,0,0,.187-.246c.095.024.182.041.274.068h.02l.234-.068a.692.692,0,0,0,.188.246.5.5,0,0,0,.249.127,1.436,1.436,0,0,1-.057.41,1.736,1.736,0,0,1-.252.547l-.064.1h.116c.006-.008.012-.021.019-.033a1.9,1.9,0,0,0,.27-.577,1.778,1.778,0,0,0,.06-.5v-.012c0-.03-.019-.055-.042-.055a.4.4,0,0,1-.249-.115.523.523,0,0,1-.174-.241l-.052-.027c-.1.025-.158.043-.258.072-.1-.029-.2-.047-.3-.072l-.05.027a.558.558,0,0,1-.174.241.406.406,0,0,1-.25.115.051.051,0,0,0-.043.055v.012a1.713,1.713,0,0,0,.064.5,1.778,1.778,0,0,0,.267.581.3.3,0,0,0,.02.03Zm1.131,0a.36.36,0,0,0,.024-.039l.084.039h.167a.061.061,0,0,0-.029-.06l-.224-.1-.055.019c-.029.054-.055.1-.08.144Zm-1.3-2.549h-.045a.1.1,0,0,0,.045,0m4.782,1.542a1.877,1.877,0,0,1-.119.647.9.9,0,0,1-.122.228l-.02.028-.076-.661-.012-.017a.409.409,0,0,0-.063-.07.137.137,0,0,0-.1-.041.453.453,0,0,0-.112.01,1.136,1.136,0,0,0,.042-.164v0a.809.809,0,0,0,.013-.169c0-.019,0-.042,0-.065l.089-.076h0l.013-.01a.176.176,0,0,1,.093-.051h0a.117.117,0,0,1,.088.047.285.285,0,0,1,.037.109l0,.055,0,.01-.037.1-.008.028.165.357Zm-3.073-2.685a2.584,2.584,0,0,1-.134.245l0,.007h0c-.044.048-.08.089-.112.129a.988.988,0,0,0-.164.136,1.224,1.224,0,0,0-.268.494.026.026,0,0,1,0,.008h-.951a.168.168,0,0,0,0-.03l0-.006h0a.151.151,0,0,0-.014-.035,1.193,1.193,0,0,0-.214-.43,2.349,2.349,0,0,0-.288-.393,1.9,1.9,0,0,1-.119-.223,1.989,1.989,0,0,1-.223-.6h.235a1.727,1.727,0,0,0,.252.762,1.41,1.41,0,0,0,.8.637l.012,0,.011,0a1.408,1.408,0,0,0,.806-.637,1.7,1.7,0,0,0,.255-.762h.218a1.937,1.937,0,0,1-.216.6c-.044.092-.071.138-.118.22a1.965,1.965,0,0,0-.338.48,1.316,1.316,0,0,0-.165.381.2.2,0,0,0,0,.034h.062s0-.006,0-.008a1.225,1.225,0,0,1,.268-.494.972.972,0,0,1,.164-.136c.033-.04.069-.081.112-.129h0l0-.007h0a2.349,2.349,0,0,0,.134-.247Zm-1.7,1.021,0-.008s0,0,0,0,0,0,0,0l0,.008M548.4,255h1.949a1.527,1.527,0,0,1-.229.682.765.765,0,0,1-1.491,0v0a1.6,1.6,0,0,1-.23-.686m2.39.012v.012c-.008.036-.015.072-.023.106a2.835,2.835,0,0,1-.2.565h0a2.825,2.825,0,0,0,.2-.564c.006-.034.015-.07.023-.106v-.012a.083.083,0,0,0,0-.017.1.1,0,0,1,0,.017M548.6,253.92a.718.718,0,0,1,.545-.278h.046V252.8h-.39v-.32h.39v-.5h.359v.5h.392v.317l-.392,0v.833h.046a.7.7,0,0,1,.559.276.934.934,0,0,1,.2.518h-1.969a.906.906,0,0,1,.215-.5m-.73.625h2.985v.334h-2.985Zm.167.45h0a2.489,2.489,0,0,0,.215.634,1.586,1.586,0,0,0,.121.226s0,0,0,.007l0,0a1.855,1.855,0,0,1,.173.205,2.083,2.083,0,0,1,.189.325c.027.054.048.1.067.148a.012.012,0,0,0,0-.007c-.017-.043-.037-.088-.063-.141a2.017,2.017,0,0,0-.188-.325,1.856,1.856,0,0,0-.173-.205,0,0,0,0,1,0,0l0-.007a1.586,1.586,0,0,1-.121-.226,2.526,2.526,0,0,1-.216-.634m.8,1.837-.041-.039Zm-3.765,1.719,1.271-1.738.63.735-.3.412-.133-.161-.03-.039-.422.572.165.2-.134.183c-.2-.238-.305-.361-.305-.361l-.034-.043-.636.871c-.033-.179-.068-.364-.1-.536l-.01-.058a.08.08,0,0,0,.042-.035m2.4.682a.043.043,0,0,0,.059.023l.24-.127.027-.053a.231.231,0,0,1,.055-.158.224.224,0,0,1,.182-.071.14.14,0,0,1,.1.063.369.369,0,0,1,.066.122l.025.036h.037l.182-.1a.073.073,0,0,0,.024-.077,1.313,1.313,0,0,1-.059-.243,1.513,1.513,0,0,1-.02-.235v-.047l-.026-.053a.665.665,0,0,1-.166-.128.976.976,0,0,1-.159-.194l-.065-.01-.008.084a.911.911,0,0,0,.175.209v0a.737.737,0,0,0,.156.121v.013a1.485,1.485,0,0,0,.022.257,1.919,1.919,0,0,0,.047.212l-.1.057a.474.474,0,0,0-.068-.112.213.213,0,0,0-.163-.094.325.325,0,0,0-.243.1.368.368,0,0,0-.082.206l-.176.094c-.029-.062-.081-.173-.129-.251a1.389,1.389,0,0,0-.268-.333l.65-.94,0-.072a.79.79,0,0,1-.086-.193.664.664,0,0,1-.056-.211v0l0-.052a.5.5,0,0,1,.028-.162.391.391,0,0,1,.117-.193.283.283,0,0,1,.222-.09h0a.41.41,0,0,1,.19.034.21.21,0,0,1,.1.132.357.357,0,0,1,.014.1.323.323,0,0,1-.039.147l-.12.2a.394.394,0,0,0-.069.211v.029a.485.485,0,0,0,.206.378.354.354,0,0,0,.16.043h.025a.275.275,0,0,0,.131-.03.327.327,0,0,0,.161-.15.443.443,0,0,0,.069-.244h1.012a.486.486,0,0,0,.069.244.334.334,0,0,0,.161.15.285.285,0,0,0,.129.03h.029a.35.35,0,0,0,.157-.043.382.382,0,0,0,.151-.165.426.426,0,0,0,.058-.212l0-.029a.379.379,0,0,0-.07-.211h0l-.119-.2a.312.312,0,0,1-.04-.148.394.394,0,0,1,.014-.1.2.2,0,0,1,.1-.132.4.4,0,0,1,.187-.034h.008a.282.282,0,0,1,.22.09.4.4,0,0,1,.115.193.457.457,0,0,1,.028.165v.048a.747.747,0,0,1-.058.214,1.17,1.17,0,0,1-.084.193v.072l.653.94a1.409,1.409,0,0,0-.268.333c-.046.078-.1.192-.129.251l-.165-.09a.383.383,0,0,0-.083-.206.321.321,0,0,0-.242-.1.218.218,0,0,0-.165.094.471.471,0,0,0-.067.112l-.1-.059a1.472,1.472,0,0,0,.046-.21,1.616,1.616,0,0,0,.023-.263V258.4a.68.68,0,0,0,.153-.125.914.914,0,0,0,.175-.209l0-.084-.064.01a1.016,1.016,0,0,1-.162.194.688.688,0,0,1-.164.128l-.028.053v.041a1.361,1.361,0,0,1-.019.241,1.24,1.24,0,0,1-.057.243.067.067,0,0,0,.026.077l.178.1h.037l.024-.036a.323.323,0,0,1,.066-.122.139.139,0,0,1,.1-.063.222.222,0,0,1,.181.071.226.226,0,0,1,.055.158l.024.053.244.127a.042.042,0,0,0,.057-.023s.021-.047.047-.1a1.368,1.368,0,0,1,.1-.173,1.1,1.1,0,0,1,.288-.349l.021-.042-.011-.048-.663-.955a.853.853,0,0,0,.071-.176.739.739,0,0,0,.067-.25l0-.059a.593.593,0,0,0-.037-.211.529.529,0,0,0-.144-.244.371.371,0,0,0-.276-.112h-.008a.469.469,0,0,0-.221.043.3.3,0,0,0-.157.2.537.537,0,0,0-.022.141.478.478,0,0,0,.057.217h0l.118.2,0,0a.225.225,0,0,1,.049.142v.021a.294.294,0,0,1-.043.15h0a.27.27,0,0,1-.107.123v-.006a.191.191,0,0,1-.123.034l-.027,0a.2.2,0,0,1-.1-.023h0a.237.237,0,0,1-.123-.11v0a.359.359,0,0,1-.048-.193v-.035l-.014-.046-.032-.018h-1.1l-.034.018-.012.046,0,.031a.35.35,0,0,1-.051.2v0a.247.247,0,0,1-.12.11.2.2,0,0,1-.1.023l-.023,0a.186.186,0,0,1-.124-.034v.006a.3.3,0,0,1-.108-.123.3.3,0,0,1-.045-.15l0-.021a.235.235,0,0,1,.047-.142l0,0,.122-.2h0a.456.456,0,0,0,.058-.217.629.629,0,0,0-.022-.141.308.308,0,0,0-.158-.2.471.471,0,0,0-.222-.043h0a.375.375,0,0,0-.279.112.531.531,0,0,0-.145.244.627.627,0,0,0-.037.208l0,.063a.98.98,0,0,0,.062.25,1.048,1.048,0,0,0,.077.176l-.664.955-.009.048.021.042a1.087,1.087,0,0,1,.286.349h0a1.5,1.5,0,0,1,.09.173c.029.057.049.1.049.1m4.969-2.174-.082.089h.147Z" transform="translate(-366.887 -180.698)" fill="#dde5eb"/>
    </g>
    <text id="Te_llevo_App" data-name="Te llevo App" transform="translate(1552 368)" fill="#d2d2d2" font-size="25" font-family="MyriadPro-Bold, Myriad Pro" font-weight="700"><tspan x="0" y="0">Te llevo App</tspan></text>
    <line id="Lnea_1" data-name="Lnea 1" x2="138" transform="translate(1553.5 374.5)" fill="none" stroke="#f8b31c" stroke-width="1"/>
  </g>
</svg>
